<svg width="32" height="32" viewBox="0 0 32 32" fill="none" xmlns="http://www.w3.org/2000/svg">
<path fill-rule="evenodd" clip-rule="evenodd" d="M5.33333 2.13333H26.6667C28.434 2.13333 29.8667 3.56602 29.8667 5.33333V26.6667C29.8667 28.434 28.434 29.8667 26.6667 29.8667H5.33333C3.56602 29.8667 2.13333 28.434 2.13333 26.6667V5.33333C2.13333 3.56602 3.56602 2.13333 5.33333 2.13333ZM0 5.33333C0 2.38782 2.38781 0 5.33333 0H26.6667C29.6122 0 32 2.38781 32 5.33333V26.6667C32 29.6122 29.6122 32 26.6667 32H5.33333C2.38782 32 0 29.6122 0 26.6667V5.33333ZM16.0003 8C16.5894 8 17.0669 8.47756 17.0669 9.06667V14.9332H22.9333C23.5224 14.9332 24 15.4108 24 15.9999C24 16.589 23.5224 17.0665 22.9333 17.0665H17.0669V22.9333C17.0669 23.5224 16.5894 24 16.0003 24C15.4112 24 14.9336 23.5224 14.9336 22.9333V17.0665H9.06667C8.47756 17.0665 8 16.589 8 15.9999C8 15.4108 8.47756 14.9332 9.06667 14.9332H14.9336V9.06667C14.9336 8.47756 15.4112 8 16.0003 8Z" fill="#5B5B5B"/>
</svg>
