<svg width="32" height="32" viewBox="0 0 32 32" fill="none" xmlns="http://www.w3.org/2000/svg">
<path fill-rule="evenodd" clip-rule="evenodd" d="M26.3934 19.0346C25.9625 18.8581 25.5014 18.7672 25.0357 18.7672C24.6006 18.7424 24.1657 18.8216 23.7672 18.998C23.4224 19.1644 23.0934 19.3618 22.7844 19.5877C22.4836 19.806 22.2084 20.0575 21.9639 20.3374C21.7262 20.6117 21.4953 20.8631 21.269 21.0894C21.0636 21.2971 20.842 21.4882 20.6062 21.6608C20.3682 21.8313 20.0768 21.9106 19.7852 21.8842C19.4936 21.8577 19.2212 21.7273 19.0177 21.5168C18.7661 21.2809 18.5162 21.0431 18.268 20.8037C17.948 20.4928 17.5549 20.118 17.0909 19.6769C16.6054 19.2163 16.1231 18.7523 15.6441 18.2849L14.0899 16.7673C13.1356 15.8343 12.2132 14.8692 11.3243 13.8737C11.0051 13.5227 10.7067 13.1533 10.4306 12.7675C10.2158 12.4589 10.1084 12.2326 10.1084 12.0886C10.0951 11.8306 10.1773 11.5768 10.3392 11.3755C10.5061 11.1607 10.7049 10.9412 10.9289 10.7127C11.1575 10.4887 11.4066 10.2487 11.6786 9.99957C11.9529 9.74815 12.2043 9.48074 12.4306 9.19503C12.6545 8.90933 12.8465 8.58249 13.002 8.21222C13.1551 7.84652 13.2328 7.42825 13.2328 6.96427C13.2328 6.02111 12.8607 5.11603 12.1974 4.44552C11.7704 4.02635 11.3653 3.5854 10.9838 3.12444C10.5477 2.60517 10.0765 2.11642 9.57353 1.66164C9.08527 1.21482 8.55218 0.819595 7.98274 0.482265C7.46557 0.169201 6.87307 0.00251029 6.26853 0C5.32616 0.000625879 4.42201 0.372634 3.75206 1.03538C3.13266 1.65479 2.59097 2.20791 2.12699 2.69703C1.68171 3.16013 1.28641 3.66882 0.947612 4.21468C0.619276 4.7563 0.378603 5.34641 0.234499 5.96317C0.0667238 6.72553 -0.0115163 7.50486 0.00136659 8.28536C0.00136659 9.54702 0.204787 10.8567 0.609341 12.2143C1.01389 13.5697 1.56016 14.9228 2.25041 16.2667C2.94067 17.613 3.78178 18.934 4.76916 20.2323C5.75655 21.5282 6.8285 22.7602 7.98274 23.9281C9.13698 25.0938 10.3644 26.1726 11.6626 27.16C12.9585 28.1474 14.2865 28.9999 15.6441 29.713C16.9995 30.4284 18.364 30.9861 19.7331 31.3907C21.0301 31.7849 22.3773 31.9897 23.7329 31.9986C24.5077 31.9982 25.2802 31.9139 26.0368 31.7472C26.6604 31.6065 27.257 31.3656 27.8036 31.0341C28.3293 30.7141 28.8321 30.321 29.3213 29.857C29.8104 29.3907 30.3566 28.8559 30.9646 28.2479C31.6277 27.5773 31.9997 26.6723 32 25.7292C31.9741 25.3283 31.8957 24.9326 31.7669 24.5521C31.6332 24.1536 31.4347 23.7798 31.1795 23.4459C30.9127 23.0958 30.6321 22.7565 30.3384 22.4288C30.0357 22.0897 29.7144 21.7677 29.3761 21.4642C29.0494 21.1714 28.7218 20.8796 28.3933 20.5888C28.1058 20.3353 27.8261 20.0731 27.5545 19.8026C27.2234 19.4707 26.8284 19.2094 26.3934 19.0346ZM25.5546 29.5165C24.9583 29.6598 24.3461 29.7258 23.7329 29.713C22.5578 29.6908 21.3916 29.5046 20.2679 29.1599C19.0107 28.7799 17.7959 28.2713 16.6429 27.6422C14.0796 26.2386 11.7337 24.4702 9.67867 22.3922C8.63413 21.3358 7.65049 20.2209 6.73251 19.0529C5.84129 17.9236 5.05339 16.7165 4.37832 15.4462C3.74914 14.2716 3.23405 13.0393 2.8401 11.7664C2.48217 10.6223 2.29577 9.4315 2.28698 8.23279C2.28641 7.6245 2.35853 7.01832 2.50183 6.42715C2.63211 5.92889 2.82867 5.48091 3.09152 5.09007C3.35208 4.69694 3.67435 4.31524 4.05376 3.94726C4.43546 3.57699 4.86973 3.14729 5.35657 2.66046C5.47508 2.53859 5.61741 2.44243 5.7747 2.37794C5.93198 2.31345 6.10086 2.28203 6.27081 2.28562C6.41252 2.27419 6.63194 2.3679 6.92907 2.57132C7.2262 2.77474 7.54847 3.01701 7.8936 3.30272C8.63894 3.92443 9.32666 4.61214 9.94837 5.35749C10.2341 5.70033 10.4718 6.01803 10.6615 6.30373C10.8512 6.58943 10.9472 6.80885 10.9472 6.96427C10.9677 7.22317 10.8847 7.47963 10.7163 7.67739C10.5495 7.86938 10.3506 8.0888 10.1266 8.34022C9.89809 8.58935 9.64896 8.82705 9.37697 9.05333C9.10269 9.2796 8.85127 9.54702 8.625 9.85558C8.39787 10.167 8.20622 10.5028 8.05359 10.8567C7.89255 11.2478 7.81396 11.668 7.82275 12.0909C7.83417 12.5777 7.93017 13.0349 8.10845 13.4623C8.28673 13.892 8.54272 14.2737 8.87642 14.6051L17.3926 23.1236C17.7203 23.4591 18.1122 23.7251 18.545 23.9057C18.9777 24.0863 19.4424 24.1779 19.9114 24.175C20.3403 24.1977 20.7685 24.1194 21.1616 23.9464C21.8482 23.6283 22.462 23.1724 22.965 22.607C23.2164 22.3328 23.4449 22.0813 23.6621 21.8551C23.8746 21.6311 24.0963 21.4391 24.3226 21.2837C24.531 21.1353 24.78 21.0547 25.0357 21.0528C25.2026 21.0528 25.4289 21.1488 25.7146 21.3385C26.0003 21.5282 26.3157 21.7728 26.6608 22.0699C27.0059 22.367 27.3625 22.6962 27.7328 23.0527C28.1007 23.4093 28.4299 23.7658 28.7156 24.1247C28.999 24.4812 29.239 24.8035 29.4287 25.0892C29.6184 25.3749 29.7144 25.592 29.7144 25.7498C29.7161 25.9161 29.6837 26.0809 29.6192 26.2342C29.5547 26.3875 29.4596 26.526 29.3395 26.6411C28.8276 27.1417 28.3933 27.5783 28.0367 27.9439C27.6902 28.3041 27.3072 28.6274 26.8939 28.9085C26.4846 29.1847 26.0319 29.3902 25.5546 29.5165ZM32 1.60907L21.3947 12.2326H28.9098V14.5182H17.4818V3.09015H19.7674V10.6053L30.3932 0L32 1.60679V1.60907Z" fill="#7066DA"/>
</svg>
