<svg width="18" height="18" viewBox="0 0 18 18" fill="none" xmlns="http://www.w3.org/2000/svg">
<path fill-rule="evenodd" clip-rule="evenodd" d="M0 0.782609C0 0.350386 0.335786 0 0.75 0H3.75C4.10747 0 4.41526 0.263258 4.48541 0.629016L5.11532 3.91304H17.25C17.4735 3.91304 17.6854 4.01707 17.8279 4.19678C17.9704 4.37649 18.0286 4.61315 17.9867 4.84226L16.7867 11.4083L16.7857 11.4142L16.7856 11.4142C16.6828 11.9547 16.401 12.4402 15.9896 12.7857C15.5803 13.1295 15.0687 13.3129 14.5435 13.3043H7.26648C6.74128 13.3129 6.22965 13.1295 5.82036 12.7857C5.40919 12.4403 5.12748 11.9551 5.0245 11.4149L5.02437 11.4142L3.77159 4.88285C3.76651 4.86125 3.76229 4.83929 3.75896 4.81702L3.13524 1.56522H0.75C0.335786 1.56522 0 1.21483 0 0.782609ZM5.41555 5.47826L6.49541 11.1081L6.49563 11.1093C6.52992 11.2894 6.62384 11.4513 6.76096 11.5664C6.89807 11.6816 7.06964 11.7428 7.24563 11.7393L7.26 11.7391H14.55L14.5644 11.7393C14.7404 11.7428 14.9119 11.6816 15.049 11.5664C15.1855 11.4518 15.2792 11.2909 15.3139 11.1118L16.3435 5.47826H5.41555ZM6.75 14.8696C5.92157 14.8696 5.25 15.5703 5.25 16.4348C5.25 17.2992 5.92157 18 6.75 18C7.57843 18 8.25 17.2992 8.25 16.4348C8.25 15.5703 7.57843 14.8696 6.75 14.8696ZM15 14.8696C14.1716 14.8696 13.5 15.5703 13.5 16.4348C13.5 17.2992 14.1716 18 15 18C15.8284 18 16.5 17.2992 16.5 16.4348C16.5 15.5703 15.8284 14.8696 15 14.8696ZM13.2876 6.26087C13.1337 6.26126 12.9862 6.31769 12.8769 6.41796H12.8777C12.8721 6.42295 12.8669 6.42826 12.8621 6.43386L10.1497 9.63196L8.51428 8.11928C8.46065 8.06602 8.39599 8.0233 8.32414 7.99368C8.25229 7.96405 8.17472 7.94812 8.09608 7.94684C8.01743 7.94555 7.93931 7.95894 7.86637 7.9862C7.79344 8.01347 7.72718 8.05404 7.67156 8.10552C7.61594 8.15699 7.57209 8.2183 7.54263 8.2858C7.51317 8.35329 7.4987 8.42559 7.50009 8.49837C7.50148 8.57115 7.51869 8.64293 7.55071 8.70942C7.58272 8.77591 7.62888 8.83575 7.68643 8.88537L9.75215 10.7977C9.80783 10.8493 9.87417 10.8899 9.94721 10.9172C10.0202 10.9444 10.0985 10.9578 10.1772 10.9564C10.2559 10.9551 10.3336 10.939 10.4055 10.9093C10.4774 10.8795 10.542 10.8367 10.5956 10.7833L13.7133 7.17683C13.8195 7.07372 13.8775 6.93608 13.8749 6.79368C13.8723 6.65128 13.8092 6.51556 13.6993 6.41586C13.5894 6.31615 13.4415 6.26048 13.2876 6.26087Z" fill="white"/>
</svg>
