<svg width="32" height="32" viewBox="0 0 32 32" fill="none" xmlns="http://www.w3.org/2000/svg">
    <g clip-path="url(#clip0)">
        <path fill-rule="evenodd" clip-rule="evenodd" d="M1.33333 0C0.596954 0 0 0.622908 0 1.3913C0 2.1597 0.596954 2.78261 1.33333 2.78261H5.57375L6.6826 8.56359C6.68851 8.60318 6.69602 8.64222 6.70505 8.68063L8.93221 20.2919L8.93244 20.2931C9.11551 21.2535 9.61633 22.1161 10.3473 22.7301C11.0749 23.3413 11.9845 23.6674 12.9182 23.6522H25.8551C26.7888 23.6674 27.6984 23.3413 28.426 22.7301C29.1573 22.1158 29.6582 21.2527 29.8411 20.2919L29.8412 20.2919L29.8431 20.2815L31.9764 8.60846C32.0508 8.20115 31.9473 7.78043 31.694 7.46095C31.4407 7.14146 31.064 6.95652 30.6667 6.95652H9.09391L7.97407 1.11825C7.84935 0.468014 7.30217 0 6.66667 0H1.33333ZM11.5474 19.7478L9.62764 9.73913H29.055L27.2247 19.7543C27.163 20.0728 26.9965 20.3587 26.7539 20.5626C26.5101 20.7673 26.2051 20.8761 25.8922 20.8698L25.8667 20.8696H12.9067L12.8811 20.8698C12.5683 20.8761 12.2632 20.7673 12.0195 20.5626C11.7757 20.3578 11.6087 20.0701 11.5478 19.7498L11.5474 19.7478ZM9.33333 29.2174C9.33333 27.6806 10.5272 26.4348 12 26.4348C13.4728 26.4348 14.6667 27.6806 14.6667 29.2174C14.6667 30.7542 13.4728 32 12 32C10.5272 32 9.33333 30.7542 9.33333 29.2174ZM24 29.2174C24 27.6806 25.1939 26.4348 26.6667 26.4348C28.1394 26.4348 29.3333 27.6806 29.3333 29.2174C29.3333 30.7542 28.1394 32 26.6667 32C25.1939 32 24 30.7542 24 29.2174Z" fill="#ffffff"/>
    </g>
    <defs>
        <clipPath id="clip0">
            <rect width="32" height="32" fill="white"/>
        </clipPath>
    </defs>
</svg>
