<svg width="32" height="32" viewBox="0 0 32 32" fill="none" xmlns="http://www.w3.org/2000/svg">
    <path d="M29.7143 4.57143H18.2857V2.28571C18.2857 1.67951 18.0449 1.09812 17.6162 0.66947C17.1876 0.240816 16.6062 0 16 0H2.28571C1.67951 0 1.09812 0.240816 0.66947 0.66947C0.240816 1.09812 0 1.67951 0 2.28571V25.1429C0 25.7491 0.240816 26.3304 0.66947 26.7591C1.09812 27.1878 1.67951 27.4286 2.28571 27.4286H13.7143V29.7143C13.7143 30.3205 13.9551 30.9019 14.3838 31.3305C14.8124 31.7592 15.3938 32 16 32H29.7143C30.3205 32 30.9019 31.7592 31.3305 31.3305C31.7592 30.9019 32 30.3205 32 29.7143V6.85714C32 6.25093 31.7592 5.66955 31.3305 5.2409C30.9019 4.81224 30.3205 4.57143 29.7143 4.57143ZM2.28571 14.8571H9.33714L6.38857 17.8171L8 19.4286L13.7143 13.7143L8 8L6.38857 9.61143L9.33714 12.5714H2.28571V2.28571H16V25.1429H2.28571V14.8571ZM16 29.7143V27.4286C16.6062 27.4286 17.1876 27.1878 17.6162 26.7591C18.0449 26.3304 18.2857 25.7491 18.2857 25.1429V6.85714H29.7143V17.1429H22.6629L25.6114 14.1829L24 12.5714L18.2857 18.2857L24 24L25.6114 22.3886L22.6629 19.4286H29.7143V29.7143H16Z" fill="#7066DA"/>
</svg>
