<svg width="32" height="32" viewBox="0 0 32 32" fill="none" xmlns="http://www.w3.org/2000/svg">
<path fill-rule="evenodd" clip-rule="evenodd" d="M16 30C19.713 30 23.274 28.525 25.8995 25.8995C28.525 23.274 30 19.713 30 16C30 12.287 28.525 8.72601 25.8995 6.1005C23.274 3.475 19.713 2 16 2C12.287 2 8.72601 3.475 6.1005 6.1005C3.475 8.72601 2 12.287 2 16C2 19.713 3.475 23.274 6.1005 25.8995C8.72601 28.525 12.287 30 16 30V30ZM16 32C20.2435 32 24.3131 30.3143 27.3137 27.3137C30.3143 24.3131 32 20.2435 32 16C32 11.7565 30.3143 7.68687 27.3137 4.68629C24.3131 1.68571 20.2435 0 16 0C11.7565 0 7.68687 1.68571 4.68629 4.68629C1.68571 7.68687 0 11.7565 0 16C0 20.2435 1.68571 24.3131 4.68629 27.3137C7.68687 30.3143 11.7565 32 16 32V32Z" fill="#5B5B5B"/>
<path fill-rule="evenodd" clip-rule="evenodd" d="M21.59 23.4757C22.1107 23.9964 22.955 23.9964 23.4757 23.4757C23.9964 22.955 23.9964 22.1108 23.4757 21.5901L18.29 16.4044L23.4754 11.219C23.9961 10.6983 23.9961 9.85403 23.4754 9.33333C22.9547 8.81264 22.1105 8.81264 21.5898 9.33333L16.4044 14.5188L11.2191 9.33356C10.6984 8.81287 9.85422 8.81287 9.33352 9.33356C8.81282 9.85426 8.81282 10.6985 9.33352 11.2192L14.5187 16.4044L9.33329 21.5899C8.81259 22.1106 8.81259 22.9548 9.33329 23.4755C9.85399 23.9962 10.6982 23.9962 11.2189 23.4755L16.4044 18.29L21.59 23.4757Z" fill="#5B5B5B"/>
</svg>
