<svg width="48" height="36" viewBox="0 0 48 36" fill="none" xmlns="http://www.w3.org/2000/svg">
<path fill-rule="evenodd" clip-rule="evenodd" d="M0 4.5C0 3.30653 0.474106 2.16193 1.31802 1.31802C2.16193 0.474106 3.30653 0 4.5 0H31.5C32.6935 0 33.8381 0.474106 34.682 1.31802C35.5259 2.16193 36 3.30653 36 4.5V9H39.06C39.7342 9.0006 40.3997 9.15269 41.0072 9.44504C41.6148 9.73738 42.1488 10.1625 42.57 10.689L47.013 16.239C47.6523 17.0376 48.0004 18.0301 48 19.053V25.5C48 26.6935 47.5259 27.8381 46.682 28.682C45.8381 29.5259 44.6935 30 43.5 30H42C42 31.5913 41.3679 33.1174 40.2426 34.2426C39.1174 35.3679 37.5913 36 36 36C34.4087 36 32.8826 35.3679 31.7574 34.2426C30.6321 33.1174 30 31.5913 30 30H15C15 31.5913 14.3679 33.1174 13.2426 34.2426C12.1174 35.3679 10.5913 36 9 36C7.4087 36 5.88258 35.3679 4.75736 34.2426C3.63214 33.1174 3 31.5913 3 30C3 29.9146 3.00182 29.8295 3.00544 29.7446C2.37648 29.5231 1.79851 29.1625 1.31802 28.682C0.474106 27.8381 0 26.6935 0 25.5V4.5ZM30.8038 27C31.0638 26.5497 31.3833 26.1314 31.7574 25.7574C32.1314 25.3833 32.5497 25.0638 33 24.8038V9V4.5C33 4.10217 32.842 3.72064 32.5607 3.43934C32.2794 3.15803 31.8978 3 31.5 3H4.5C4.10218 3 3.72064 3.15803 3.43934 3.43934C3.15804 3.72064 3 4.10217 3 4.5V25.5C3 25.8978 3.15804 26.2794 3.43934 26.5607C3.5687 26.69 3.71925 26.7933 3.88283 26.8671C4.12763 26.4673 4.42038 26.0943 4.75736 25.7574C5.88258 24.6321 7.4087 24 9 24C10.5913 24 12.1174 24.6321 13.2426 25.7574C13.6167 26.1314 13.9362 26.5497 14.1962 27H30.8038ZM36 24C37.5913 24 39.1174 24.6321 40.2426 25.7574C40.6167 26.1314 40.9362 26.5497 41.1962 27H43.5C43.8978 27 44.2794 26.842 44.5607 26.5607C44.842 26.2794 45 25.8978 45 25.5V19.05C44.9994 18.7096 44.883 18.3795 44.67 18.114L40.23 12.564C40.0897 12.3883 39.9117 12.2464 39.7092 12.1488C39.5067 12.0512 39.2848 12.0003 39.06 12H36V24ZM9 33C9.79565 33 10.5587 32.6839 11.1213 32.1213C11.6839 31.5587 12 30.7956 12 30C12 29.2043 11.6839 28.4413 11.1213 27.8787C10.5587 27.3161 9.79565 27 9 27C8.20435 27 7.44129 27.3161 6.87868 27.8787C6.31607 28.4413 6 29.2043 6 30C6 30.7956 6.31607 31.5587 6.87868 32.1213C7.44129 32.6839 8.20435 33 9 33ZM38.1213 32.1213C37.5587 32.6839 36.7957 33 36 33C35.2043 33 34.4413 32.6839 33.8787 32.1213C33.3161 31.5587 33 30.7956 33 30C33 29.2043 33.3161 28.4413 33.8787 27.8787C34.4413 27.3161 35.2043 27 36 27C36.7957 27 37.5587 27.3161 38.1213 27.8787C38.6839 28.4413 39 29.2043 39 30C39 30.7956 38.6839 31.5587 38.1213 32.1213Z" fill="#4772B2"/>
</svg>
