<svg width="44" height="44" viewBox="0 0 44 44" fill="none" xmlns="http://www.w3.org/2000/svg">
<path fill-rule="evenodd" clip-rule="evenodd" d="M42.9021 0.497918C43.566 1.16181 43.566 2.23819 42.9021 2.90208L2.90208 42.9021C2.23819 43.566 1.16181 43.566 0.497918 42.9021C-0.165973 42.2382 -0.165973 41.1618 0.497918 40.4979L40.4979 0.497918C41.1618 -0.165973 42.2382 -0.165973 42.9021 0.497918ZM42.7 33.7C42.7 38.6706 38.6706 42.7 33.7 42.7C28.7294 42.7 24.7 38.6706 24.7 33.7C24.7 28.7294 28.7294 24.7 33.7 24.7C38.6706 24.7 42.7 28.7294 42.7 33.7ZM33.7 39.7C37.0137 39.7 39.7 37.0137 39.7 33.7C39.7 30.3863 37.0137 27.7 33.7 27.7C30.3863 27.7 27.7 30.3863 27.7 33.7C27.7 37.0137 30.3863 39.7 33.7 39.7ZM9.7 18.7C14.6706 18.7 18.7 14.6706 18.7 9.7C18.7 4.72944 14.6706 0.7 9.7 0.7C4.72944 0.7 0.7 4.72944 0.7 9.7C0.7 14.6706 4.72944 18.7 9.7 18.7ZM15.7 9.7C15.7 13.0137 13.0137 15.7 9.7 15.7C6.38629 15.7 3.7 13.0137 3.7 9.7C3.7 6.38629 6.38629 3.7 9.7 3.7C13.0137 3.7 15.7 6.38629 15.7 9.7Z" fill="#4772B2"/>
</svg>
