<svg width="30" height="36" viewBox="0 0 30 36" fill="none" xmlns="http://www.w3.org/2000/svg">
<path fill-rule="evenodd" clip-rule="evenodd" d="M17.4998 0H17.5V0.000250135L29.9998 12.8571H30V30.8571C30 32.2211 29.4732 33.5292 28.5355 34.4937C27.5979 35.4582 26.3261 36 25 36H5C3.67392 36 2.40215 35.4582 1.46447 34.4937C0.526784 33.5292 0 32.2211 0 30.8571V5.14286C0 3.77889 0.526784 2.47078 1.46447 1.50631C2.40215 0.541835 3.67392 0 5 0H17.4998ZM17.4998 2.57143H5C4.33696 2.57143 3.70107 2.84235 3.23223 3.32458C2.76339 3.80682 2.5 4.46087 2.5 5.14286V30.8571C2.5 31.5391 2.76339 32.1932 3.23223 32.6754C3.70107 33.1577 4.33696 33.4286 5 33.4286H25C25.663 33.4286 26.2989 33.1577 26.7678 32.6754C27.2366 32.1932 27.5 31.5391 27.5 30.8571V12.8571H21.2498C20.2552 12.8571 19.3014 12.4508 18.5981 11.7274C17.8948 11.0041 17.4998 10.023 17.4998 9V2.57143ZM8.92383 21.5801C9.50977 21.1035 9.80274 20.418 9.80274 19.5234C9.80274 18.6719 9.53516 18.0273 9 17.5898C8.46875 17.1523 7.66797 16.9336 6.59766 16.9336H4.13086V25.5H5.53125V22.2949H6.42188C7.50391 22.2949 8.33789 22.0566 8.92383 21.5801ZM6.27539 21.1172H5.53125V18.1055H6.50391C7.14063 18.1055 7.60938 18.2266 7.91016 18.4688C8.21094 18.7109 8.36133 19.0781 8.36133 19.5703C8.36133 20.1016 8.19336 20.4922 7.85742 20.7422C7.52148 20.9922 6.99414 21.1172 6.27539 21.1172ZM17.3027 24.3809C18.0879 23.6309 18.4805 22.5488 18.4805 21.1348C18.4805 19.8027 18.1016 18.7695 17.3438 18.0352C16.5859 17.3008 15.5254 16.9336 14.1621 16.9336H11.5137V25.5H13.9102C15.3867 25.5 16.5176 25.127 17.3027 24.3809ZM14.127 18.1055C16.0449 18.1055 17.0039 19.1309 17.0039 21.1816C17.0039 23.2754 15.9727 24.3223 13.9102 24.3223H12.9141V18.1055H14.127ZM21.7148 25.5H20.3262V16.9336H25.1602V18.1172H21.7148V20.7949H24.9434V21.9844H21.7148V25.5Z" fill="#7066DA"/>
</svg>
