<svg width="32" height="32" viewBox="0 0 32 32" fill="none" xmlns="http://www.w3.org/2000/svg">
<path d="M31.2258 6.94297C30.7293 5.78 30.0134 4.72613 29.1181 3.84035C28.2222 2.95193 27.1659 2.24591 26.0067 1.76069C24.8046 1.25555 23.5153 0.996996 22.2137 1.00003C20.3875 1.00003 18.6058 1.50589 17.0575 2.46141C16.6871 2.68998 16.3352 2.94104 16.0018 3.21458C15.6685 2.94104 15.3166 2.68998 14.9462 2.46141C13.3978 1.50589 11.6161 1.00003 9.79001 1.00003C8.47504 1.00003 7.20082 1.25483 5.99698 1.76069C4.83389 2.24782 3.78562 2.94853 2.88552 3.84035C1.9891 4.72513 1.27303 5.77925 0.777867 6.94297C0.262993 8.1533 0 9.43856 0 10.7613C0 12.0091 0.251881 13.3093 0.751938 14.6321C1.1705 15.7375 1.77057 16.8841 2.53733 18.042C3.75228 19.8743 5.42284 21.7854 7.49715 23.7226C10.9346 26.9339 14.3387 29.1522 14.4831 29.2421L15.361 29.8117C15.75 30.0628 16.25 30.0628 16.6389 29.8117L17.5168 29.2421C17.6613 29.1485 21.0617 26.9339 24.5028 23.7226C26.5771 21.7854 28.2477 19.8743 29.4626 18.042C30.2294 16.8841 30.8332 15.7375 31.248 14.6321C31.7481 13.3093 32 12.0091 32 10.7613C32.0037 9.43856 31.7407 8.1533 31.2258 6.94297V6.94297ZM16.0018 26.8477C16.0018 26.8477 2.81514 18.3005 2.81514 10.7613C2.81514 6.94297 5.93772 3.84784 9.79001 3.84784C12.4977 3.84784 14.8461 5.37667 16.0018 7.60996C17.1575 5.37667 19.5059 3.84784 22.2137 3.84784C26.0659 3.84784 29.1885 6.94297 29.1885 10.7613C29.1885 18.3005 16.0018 26.8477 16.0018 26.8477Z" fill="#5B5B5B"/>
</svg>
