<svg width="18" height="24" viewBox="0 0 18 24" fill="none" xmlns="http://www.w3.org/2000/svg">
<path fill-rule="evenodd" clip-rule="evenodd" d="M2.6506 2.53153C4.33618 0.912019 6.61746 0.00191707 8.99618 7.31433e-10C11.3762 -2.97778e-05 13.6595 0.909213 15.3467 2.52893C17.0339 4.14865 17.9879 6.34707 18 8.64354C18 12.0778 16.0072 14.947 14.5493 17.046L14.5405 17.0586L14.2732 17.4492C12.8142 19.4892 11.2492 21.4567 9.58422 23.3442L9.00382 24L8.42342 23.3442C6.75826 21.4568 5.19325 19.4893 3.73441 17.4492L3.46712 17.066C2.00085 14.9659 0 12.0847 0 8.64354C0.0121048 6.34835 0.965012 4.15104 2.6506 2.53153ZM12.9902 16.6018L13.2652 16.2112C14.6169 14.2954 16.465 11.6352 16.465 8.61406C16.465 7.66767 16.2718 6.73055 15.8965 5.8562C15.5211 4.98185 14.971 4.1874 14.2774 3.5182C13.5839 2.84901 12.7605 2.31817 11.8544 1.956C10.9482 1.59384 9.977 1.40743 8.99618 1.40743C8.01536 1.40743 7.04415 1.59384 6.13799 1.956C5.23183 2.31817 4.40847 2.84901 3.71493 3.5182C3.02139 4.1874 2.47124 4.98185 2.0959 5.8562C1.72055 6.73055 1.52737 7.66767 1.52737 8.61406C1.52737 11.5952 3.37008 14.2472 4.72055 16.1907L4.73483 16.2112L5.00212 16.6018C6.31566 18.5029 8.09504 20.6325 8.99618 21.6862C9.93551 20.6325 11.6767 18.5029 12.9902 16.6018ZM6.56491 4.18961C7.28453 3.72566 8.13056 3.47803 8.99603 3.47803C10.1566 3.47803 11.2696 3.92287 12.0903 4.71471C12.9109 5.50654 13.3719 6.5805 13.3719 7.70032C13.3719 8.53541 13.1153 9.35174 12.6345 10.0461C12.1536 10.7404 11.4702 11.2816 10.6706 11.6012C9.87103 11.9208 8.99118 12.0044 8.14234 11.8415C7.2935 11.6786 6.51379 11.2764 5.9018 10.6859C5.28982 10.0954 4.87306 9.34309 4.70421 8.52404C4.53537 7.705 4.62203 6.85604 4.95323 6.08452C5.28443 5.31299 5.8453 4.65356 6.56491 4.18961ZM7.41347 9.98565C7.88191 10.2877 8.43265 10.4489 8.99603 10.4489V10.4415C9.75019 10.4415 10.4736 10.1529 11.0076 9.63907C11.5415 9.12521 11.8425 8.428 11.8446 7.70032C11.8446 7.15671 11.6775 6.6253 11.3645 6.17331C11.0515 5.72131 10.6066 5.36903 10.0861 5.161C9.56562 4.95296 8.99287 4.89853 8.44031 5.00459C7.88775 5.11064 7.38019 5.37241 6.98181 5.7568C6.58344 6.14119 6.31214 6.63094 6.20223 7.1641C6.09232 7.69727 6.14873 8.24991 6.36433 8.75214C6.57993 9.25437 6.94503 9.68363 7.41347 9.98565Z" fill="#5B5B5B"/>
</svg>
