<svg width="44" height="44" viewBox="0 0 44 44" fill="none" xmlns="http://www.w3.org/2000/svg">
    <path fill-rule="evenodd" clip-rule="evenodd" d="M43.5933 21.6222C43.5886 33.4224 33.9893 43.0239 22.1867 43.0287H22.1779C18.5952 43.0275 15.0748 42.1286 11.9481 40.4231L0.600098 43.4L3.63702 32.3072C1.7637 29.0607 0.777966 25.3782 0.779572 21.6053C0.784268 9.80249 10.3873 0.199951 22.1865 0.199951C27.9131 0.202424 33.2878 2.43175 37.3294 6.47807C41.371 10.5242 43.5956 15.9025 43.5933 21.6222ZM12.4733 36.5478L5.73919 38.3143L7.53662 31.7487L7.11357 31.0755C5.33252 28.2427 4.39185 24.9686 4.39323 21.6066C4.39713 11.7967 12.3789 3.81567 22.1931 3.81567C26.9454 3.81731 31.4127 5.67035 34.772 9.03349C38.1312 12.3966 39.9801 16.8668 39.9783 21.621C39.9744 31.4317 31.9927 39.4135 22.1861 39.4135H22.1789C18.9862 39.4123 15.8547 38.5545 13.123 36.9335L12.4733 36.5478ZM32.2381 26.2312L32.2381 26.2312C32.1476 26.1874 32.0499 26.1402 31.9455 26.088C31.4106 25.8202 28.7809 24.5264 28.2905 24.3477C27.8003 24.1693 27.4436 24.0802 27.0871 24.6155C26.7306 25.1509 25.7055 26.3558 25.3935 26.7128C25.0814 27.0696 24.7694 27.1145 24.2347 26.8466C24.1474 26.8029 24.0282 26.7512 23.8812 26.6874C23.1282 26.3608 21.6426 25.7164 19.9333 24.1918C18.3432 22.7734 17.2697 21.0219 16.9577 20.4864C16.6457 19.9509 16.9244 19.6616 17.1922 19.3948C17.3524 19.2352 17.5364 19.0111 17.7205 18.787L17.7207 18.7868C17.813 18.6744 17.9053 18.562 17.9946 18.4577C18.2218 18.1924 18.3203 17.9913 18.4543 17.7179C18.4779 17.6696 18.5027 17.619 18.5294 17.5655C18.7077 17.2084 18.6186 16.8961 18.4848 16.6284C18.3954 16.4492 17.8868 15.2112 17.4266 14.0907L17.4261 14.0895C17.1987 13.5358 16.9831 13.0109 16.8357 12.6568C16.4523 11.736 16.0637 11.7383 15.752 11.7401H15.752C15.7107 11.7403 15.6707 11.7406 15.6322 11.7386C15.3206 11.723 14.9636 11.7197 14.6071 11.7197C14.2505 11.7197 13.671 11.8536 13.1807 12.3891C13.1493 12.4234 13.1142 12.4609 13.076 12.5016C12.519 13.096 11.3087 14.3874 11.3087 16.8512C11.3087 19.4703 13.2054 22.0009 13.4884 22.3786L13.4928 22.3844C13.5103 22.4078 13.5416 22.4528 13.5865 22.5171C14.227 23.4357 17.6157 28.2957 22.6301 30.4609C23.9062 31.012 24.9025 31.3411 25.6794 31.5876C26.9606 31.9948 28.1268 31.9373 29.0483 31.7996C30.076 31.6461 32.2129 30.5057 32.6588 29.2563C33.1043 28.0067 33.1043 26.9358 32.9706 26.7128C32.863 26.5332 32.6111 26.4115 32.2381 26.2312Z" fill="white"/>
</svg>