<svg width="24" height="24" viewBox="0 0 24 24" fill="none" xmlns="http://www.w3.org/2000/svg">
<path fill-rule="evenodd" clip-rule="evenodd" d="M0.413496 21.59C-0.137832 22.1413 -0.137832 23.0352 0.413496 23.5865C0.964825 24.1378 1.8587 24.1378 2.41003 23.5865L12 13.9965L21.59 23.5865C22.1413 24.1378 23.0352 24.1378 23.5865 23.5865C24.1378 23.0352 24.1378 22.1413 23.5865 21.59L13.9965 12L23.5865 2.41003C24.1378 1.85871 24.1378 0.964825 23.5865 0.413496C23.0352 -0.137832 22.1413 -0.137832 21.59 0.413496L12 10.0035L2.41003 0.413497C1.8587 -0.137832 0.964825 -0.137832 0.413496 0.413497C-0.137832 0.964825 -0.137832 1.85871 0.413496 2.41003L10.0035 12L0.413496 21.59Z" fill="#5B5B5B"/>
</svg>
