<svg width="24" height="24" viewBox="0 0 24 24" fill="none" xmlns="http://www.w3.org/2000/svg">
<path fill-rule="evenodd" clip-rule="evenodd" d="M19.795 14.276C19.4719 14.1436 19.126 14.0754 18.7768 14.0754C18.4504 14.0568 18.1243 14.1162 17.8254 14.2485C17.5668 14.3733 17.3201 14.5213 17.0883 14.6908C16.8627 14.8545 16.6563 15.0431 16.4729 15.2531C16.2946 15.4588 16.1215 15.6473 15.9518 15.817C15.7977 15.9729 15.6315 16.1162 15.4547 16.2456C15.2761 16.3735 15.0576 16.433 14.8389 16.4131C14.6202 16.3933 14.4159 16.2955 14.2633 16.1376C14.0746 15.9606 13.8872 15.7824 13.701 15.6028C13.461 15.3696 13.1662 15.0885 12.8182 14.7577C12.454 14.4122 12.0923 14.0643 11.7331 13.7137L10.5674 12.5755C9.85172 11.8757 9.15992 11.1519 8.49323 10.4053C8.2538 10.142 8.02999 9.86501 7.82298 9.57559C7.66184 9.34417 7.58127 9.17447 7.58127 9.06647C7.57132 8.87298 7.63295 8.68259 7.75441 8.53164C7.87955 8.3705 8.02868 8.20594 8.19668 8.03451C8.3681 7.86652 8.55495 7.68653 8.75894 7.49968C8.96464 7.31112 9.15321 7.11055 9.32291 6.89628C9.49091 6.682 9.6349 6.43687 9.75147 6.15917C9.86632 5.88489 9.9246 5.57119 9.9246 5.22321C9.92458 4.51583 9.64554 3.83702 9.14806 3.33414C8.82779 3.01976 8.52397 2.68905 8.23782 2.34333C7.91076 1.95387 7.55738 1.58732 7.18015 1.24623C6.81395 0.911113 6.41413 0.614696 5.98706 0.361699C5.59918 0.126901 5.1548 0.00188272 4.7014 0C3.99462 0.000469409 3.3165 0.279475 2.81405 0.776538C2.3495 1.24109 1.94323 1.65593 1.59524 2.02277C1.26128 2.3701 0.964804 2.75161 0.710709 3.16101C0.464457 3.56723 0.283952 4.00981 0.175875 4.47238C0.0500428 5.04415 -0.00863724 5.62865 0.00102495 6.21402C0.00102495 7.16027 0.15359 8.14251 0.457006 9.16075C0.760421 10.1773 1.17012 11.1921 1.68781 12.2001C2.2055 13.2097 2.83633 14.2005 3.57687 15.1742C4.31741 16.1462 5.12138 17.0701 5.98706 17.9461C6.85273 18.8203 7.77326 19.6294 8.74694 20.37C9.7189 21.1105 10.7149 21.7499 11.7331 22.2848C12.7496 22.8213 13.773 23.2396 14.7998 23.543C15.7726 23.8387 16.783 23.9923 17.7997 23.999C18.3808 23.9987 18.9601 23.9354 19.5276 23.8104C19.9953 23.7048 20.4428 23.5242 20.8527 23.2756C21.247 23.0356 21.6241 22.7407 21.9909 22.3928C22.3578 22.0431 22.7675 21.6419 23.2235 21.186C23.7208 20.683 23.9998 20.0042 24 19.2969C23.9806 18.9962 23.9218 18.6994 23.8251 18.4141C23.7249 18.1152 23.576 17.8349 23.3846 17.5844C23.1845 17.3218 22.9741 17.0674 22.7538 16.8216C22.5268 16.5673 22.2858 16.3258 22.0321 16.0982C21.7871 15.8785 21.5414 15.6597 21.295 15.4416C21.0793 15.2515 20.8695 15.0548 20.6659 14.8519C20.4175 14.603 20.1213 14.4071 19.795 14.276ZM19.1659 22.1373C18.7187 22.2448 18.2595 22.2944 17.7997 22.2848C16.9184 22.2681 16.0437 22.1284 15.2009 21.8699C14.258 21.5849 13.3469 21.2035 12.4822 20.7317C10.5597 19.679 8.80025 18.3526 7.259 16.7941C6.4756 16.0019 5.73787 15.1657 5.04938 14.2897C4.38096 13.4427 3.79004 12.5374 3.28374 11.5846C2.81186 10.7037 2.42553 9.77949 2.13008 8.82477C1.86163 7.96672 1.72183 7.07363 1.71524 6.17459C1.7148 5.71838 1.7689 5.26374 1.87637 4.82037C1.97408 4.44667 2.12151 4.11068 2.31864 3.81755C2.51406 3.52271 2.75576 3.23643 3.04032 2.96045C3.3266 2.68274 3.6523 2.36047 4.01743 1.99534C4.10631 1.90395 4.21306 1.83182 4.33102 1.78345C4.44899 1.73509 4.57564 1.71152 4.70311 1.71421C4.80939 1.70564 4.97396 1.77592 5.1968 1.92849C5.41965 2.08105 5.66136 2.26276 5.9202 2.47704C6.47921 2.94332 6.99499 3.45911 7.46128 4.01811C7.67555 4.27525 7.85383 4.51352 7.99611 4.7278C8.13839 4.94207 8.21039 5.10664 8.21039 5.22321C8.22578 5.41738 8.16352 5.60973 8.03725 5.75804C7.91212 5.90203 7.76298 6.0666 7.59499 6.25516C7.42356 6.44201 7.23672 6.62029 7.03273 6.79C6.82702 6.9597 6.63846 7.16027 6.46875 7.39168C6.2984 7.62523 6.15466 7.87707 6.0402 8.14251C5.91941 8.43587 5.86047 8.751 5.86706 9.06818C5.87563 9.43331 5.94763 9.77615 6.08134 10.0967C6.21505 10.419 6.40704 10.7053 6.65731 10.9538L13.0445 17.3427C13.2902 17.5943 13.5842 17.7938 13.9087 17.9293C14.2333 18.0648 14.5818 18.1334 14.9335 18.1312C15.2552 18.1483 15.5764 18.0896 15.8712 17.9598C16.3862 17.7213 16.8465 17.3793 17.2237 16.9553C17.4123 16.7496 17.5837 16.561 17.7466 16.3913C17.906 16.2233 18.0723 16.0793 18.242 15.9627C18.3982 15.8515 18.585 15.791 18.7768 15.7896C18.9019 15.7896 19.0716 15.8616 19.2859 16.0039C19.5002 16.1462 19.7368 16.3296 19.9956 16.5524C20.2544 16.7753 20.5219 17.0221 20.7996 17.2895C21.0756 17.557 21.3224 17.8244 21.5367 18.0935C21.7492 18.3609 21.9292 18.6026 22.0715 18.8169C22.2138 19.0312 22.2858 19.194 22.2858 19.3123C22.287 19.437 22.2627 19.5607 22.2144 19.6757C22.166 19.7907 22.0947 19.8945 22.0047 19.9809C21.6207 20.3563 21.295 20.6837 21.0276 20.958C20.7677 21.2281 20.4804 21.4705 20.1705 21.6814C19.8635 21.8885 19.5239 22.0426 19.1659 22.1373ZM24 1.20681L16.0461 9.17447H21.6824V10.8887H13.1113V2.31762H14.8255V7.95395L22.7949 0L24 1.20509V1.20681Z" fill="#5B5B5B"/>
</svg>
