<svg width="48" height="36" viewBox="0 0 48 36" fill="none" xmlns="http://www.w3.org/2000/svg">
<path fill-rule="evenodd" clip-rule="evenodd" d="M42 3H6C5.20435 3 4.44129 3.31607 3.87868 3.87868C3.31607 4.44129 3 5.20435 3 6V30C3 30.7956 3.31607 31.5587 3.87868 32.1213C4.44129 32.6839 5.20435 33 6 33H42C42.7957 33 43.5587 32.6839 44.1213 32.1213C44.6839 31.5587 45 30.7956 45 30V6C45 5.20435 44.6839 4.44129 44.1213 3.87868C43.5587 3.31607 42.7957 3 42 3ZM6 0C4.4087 0 2.88258 0.632141 1.75736 1.75736C0.632141 2.88258 0 4.4087 0 6V30C0 31.5913 0.632141 33.1174 1.75736 34.2426C2.88258 35.3679 4.4087 36 6 36H42C43.5913 36 45.1174 35.3679 46.2426 34.2426C47.3679 33.1174 48 31.5913 48 30V6C48 4.4087 47.3679 2.88258 46.2426 1.75736C45.1174 0.632141 43.5913 0 42 0H6ZM6 10.5C6 10.1022 6.15804 9.72064 6.43934 9.43934C6.72064 9.15804 7.10218 9 7.5 9H13.5C13.8978 9 14.2794 9.15804 14.5607 9.43934C14.842 9.72064 15 10.1022 15 10.5V13.5C15 13.8978 14.842 14.2794 14.5607 14.5607C14.2794 14.842 13.8978 15 13.5 15H7.5C7.10218 15 6.72064 14.842 6.43934 14.5607C6.15804 14.2794 6 13.8978 6 13.5V10.5ZM6.43934 18.4393C6.15804 18.7206 6 19.1022 6 19.5C6 19.8978 6.15804 20.2794 6.43934 20.5607C6.72064 20.842 7.10218 21 7.5 21H22.5C22.8978 21 23.2794 20.842 23.5607 20.5607C23.842 20.2794 24 19.8978 24 19.5C24 19.1022 23.842 18.7206 23.5607 18.4393C23.2794 18.158 22.8978 18 22.5 18H7.5C7.10218 18 6.72064 18.158 6.43934 18.4393ZM6.43934 24.4393C6.15804 24.7206 6 25.1022 6 25.5C6 25.8978 6.15804 26.2794 6.43934 26.5607C6.72064 26.842 7.10218 27 7.5 27H10.5C10.8978 27 11.2794 26.842 11.5607 26.5607C11.842 26.2794 12 25.8978 12 25.5C12 25.1022 11.842 24.7206 11.5607 24.4393C11.2794 24.158 10.8978 24 10.5 24H7.5C7.10218 24 6.72064 24.158 6.43934 24.4393ZM15.4393 24.4393C15.158 24.7206 15 25.1022 15 25.5C15 25.8978 15.158 26.2794 15.4393 26.5607C15.7206 26.842 16.1022 27 16.5 27H19.5C19.8978 27 20.2794 26.842 20.5607 26.5607C20.842 26.2794 21 25.8978 21 25.5C21 25.1022 20.842 24.7206 20.5607 24.4393C20.2794 24.158 19.8978 24 19.5 24H16.5C16.1022 24 15.7206 24.158 15.4393 24.4393ZM24.4393 24.4393C24.158 24.7206 24 25.1022 24 25.5C24 25.8978 24.158 26.2794 24.4393 26.5607C24.7206 26.842 25.1022 27 25.5 27H28.5C28.8978 27 29.2794 26.842 29.5607 26.5607C29.842 26.2794 30 25.8978 30 25.5C30 25.1022 29.842 24.7206 29.5607 24.4393C29.2794 24.158 28.8978 24 28.5 24H25.5C25.1022 24 24.7206 24.158 24.4393 24.4393ZM33.4393 24.4393C33.158 24.7206 33 25.1022 33 25.5C33 25.8978 33.158 26.2794 33.4393 26.5607C33.7206 26.842 34.1022 27 34.5 27H37.5C37.8978 27 38.2794 26.842 38.5607 26.5607C38.842 26.2794 39 25.8978 39 25.5C39 25.1022 38.842 24.7206 38.5607 24.4393C38.2794 24.158 37.8978 24 37.5 24H34.5C34.1022 24 33.7206 24.158 33.4393 24.4393Z" fill="#4772B2"/>
</svg>
