<svg width="32" height="33" viewBox="0 0 32 33" fill="none" xmlns="http://www.w3.org/2000/svg">
<path fill-rule="evenodd" clip-rule="evenodd" d="M13.3146 1C10.6812 1 8.10699 1.78089 5.91742 3.24392C3.72784 4.70695 2.02127 6.7864 1.01352 9.21933C0.005769 11.6523 -0.257905 14.3294 0.255843 16.9122C0.76959 19.4949 2.03768 21.8674 3.89977 23.7295C5.76185 25.5916 8.13429 26.8596 10.7171 27.3734C13.2999 27.8871 15.977 27.6235 18.4099 26.6157C19.6496 26.1022 20.7975 25.4073 21.8189 24.5594L29.8989 32.6395C30.3796 33.1202 31.1589 33.1202 31.6395 32.6395C32.1202 32.1589 32.1202 31.3796 31.6395 30.8989L23.5595 22.8189C23.8528 22.4655 24.1285 22.0961 24.3853 21.7118C25.8483 19.5222 26.6292 16.948 26.6292 14.3146V14.3145C26.629 10.7834 25.2262 7.3969 22.7292 4.89999C20.2323 2.40307 16.8459 1.00022 13.3147 1L13.3146 2.23077V1ZM20.9887 6.64056C18.9534 4.60525 16.193 3.46174 13.3146 3.46154L24.1677 14.3146C24.1675 11.4363 23.024 8.67586 20.9887 6.64056ZM7.28497 5.29061C9.06973 4.09807 11.168 3.46155 13.3145 3.46154L24.1677 14.3147C24.1677 16.4612 23.5312 18.5595 22.3386 20.3443C21.1461 22.129 19.4511 23.5201 17.4679 24.3415C15.4848 25.163 13.3026 25.3779 11.1973 24.9592C9.092 24.5404 7.15817 23.5067 5.64034 21.9889C4.12251 20.4711 3.08885 18.5372 2.67008 16.4319C2.25131 14.3267 2.46624 12.1445 3.28769 10.1613C4.10913 8.17818 5.5002 6.48316 7.28497 5.29061Z" fill="#CACACA"/>
</svg>
