<svg width="30" height="32" viewBox="0 0 30 32" fill="none" xmlns="http://www.w3.org/2000/svg">
<path fill-rule="evenodd" clip-rule="evenodd" d="M11.2289 4.28832C12.2291 3.27404 13.5857 2.70423 15.0002 2.70423C16.4147 2.70423 17.7712 3.27404 18.7714 4.28832C19.7716 5.3026 20.3335 6.67827 20.3335 8.11268V9.01408H9.66683V8.11268C9.66683 6.67827 10.2287 5.30261 11.2289 4.28832ZM7.00016 9.01408V8.11268C7.00016 5.96106 7.84302 3.89757 9.34331 2.37615C10.8436 0.854726 12.8784 0 15.0002 0C17.1219 0 19.1567 0.854726 20.657 2.37615C22.1573 3.89757 23.0002 5.96106 23.0002 8.11268V9.01408H27.2224C27.8707 9.01408 28.4924 9.27525 28.9509 9.74013C29.4093 10.205 29.6668 10.8355 29.6668 11.493V26.7923C29.6668 29.7079 27.2417 32 24.4446 32H5.55572C2.71934 32 0.333496 29.5806 0.333496 26.7042V11.493C0.333496 10.8355 0.591036 10.205 1.04946 9.74013C1.50788 9.27525 2.12963 9.01408 2.77794 9.01408H7.00016ZM21.6668 11.7183H8.3335H3.00016V26.7042C3.00016 28.0871 4.1921 29.2958 5.55572 29.2958H24.4446C25.8476 29.2958 27.0002 28.1358 27.0002 26.7923V11.7183H21.6668Z" fill="#5B5B5B"/>
</svg>
