<svg width="24" height="24" viewBox="0 0 24 24" fill="none" xmlns="http://www.w3.org/2000/svg">
<path fill-rule="evenodd" clip-rule="evenodd" d="M0 12C0 18.6274 5.37258 24 12 24C18.6274 24 24 18.6274 24 12C24 5.37258 18.6274 0 12 0C5.37258 0 0 5.37258 0 12ZM9.80003 17.5L10.0042 14.4411L10.004 14.441L15.5685 9.41951C15.8127 9.20277 15.5152 9.09708 15.191 9.29367L8.32367 13.6262L5.35737 12.7003C4.71678 12.5042 4.71218 12.064 5.50119 11.7475L17.0602 7.29044C17.5881 7.05076 18.0977 7.41724 17.8961 8.22526L15.9276 17.5016C15.7902 18.1607 15.3919 18.3184 14.84 18.0139L11.8414 15.7985L10.4 17.2C10.3955 17.2044 10.391 17.2088 10.3865 17.2132C10.2253 17.3702 10.0919 17.5 9.80003 17.5Z" fill="#8883E2"/>
</svg>
