<svg width="24" height="24" viewBox="0 0 24 24" fill="none" xmlns="http://www.w3.org/2000/svg">
    <path fill-rule="evenodd" clip-rule="evenodd" d="M0 12C0 18.6274 5.37258 24 12 24C18.6274 24 24 18.6274 24 12C24 5.37258 18.6274 0 12 0C5.37258 0 0 5.37258 0 12ZM19.5311 11.5407C19.5295 15.4741 16.3298 18.6746 12.3956 18.6762H12.3926C11.1984 18.6758 10.025 18.3762 8.98273 17.8077L5.20005 18.8L6.21236 15.1024C5.58792 14.0202 5.25934 12.7927 5.25988 11.5351C5.26144 7.60083 8.46246 4.39998 12.3955 4.39998C14.3044 4.4008 16.096 5.14391 17.4432 6.49269C18.7904 7.84139 19.5319 9.63415 19.5311 11.5407Z" fill="#8883E2"/>
    <path fill-rule="evenodd" clip-rule="evenodd" d="M6.91313 17.1048L9.15782 16.516L9.37439 16.6445C10.285 17.1849 11.3288 17.4708 12.393 17.4712H12.3954C15.6643 17.4712 18.3249 14.8106 18.3262 11.5404C18.3268 9.95567 17.7105 8.46561 16.5907 7.34456C15.471 6.22351 13.9819 5.60583 12.3978 5.60529C9.12635 5.60529 6.46578 8.26562 6.46448 11.5356C6.46402 12.6563 6.77757 13.7476 7.37126 14.6919L7.51227 14.9163L6.91313 17.1048ZM15.7461 13.0771C15.8704 13.1372 15.9544 13.1778 15.9903 13.2377C16.0348 13.312 16.0348 13.669 15.8863 14.0855C15.7377 14.502 15.0254 14.8821 14.6828 14.9333C14.3757 14.9792 13.9869 14.9983 13.5599 14.8626C13.3009 14.7804 12.9688 14.6707 12.5434 14.487C10.872 13.7653 9.74239 12.1453 9.5289 11.8391C9.51395 11.8177 9.50349 11.8027 9.49765 11.7949L9.49622 11.7929C9.40186 11.667 8.76964 10.8235 8.76964 9.95047C8.76964 9.12921 9.17306 8.69874 9.35875 8.50059C9.37147 8.48702 9.38317 8.47453 9.39365 8.46309C9.55707 8.28459 9.75025 8.23996 9.8691 8.23996C9.98795 8.23996 10.1069 8.24106 10.2108 8.24628C10.2236 8.24692 10.237 8.24684 10.2508 8.24676C10.3547 8.24615 10.4842 8.24539 10.612 8.55234C10.6611 8.67046 10.7331 8.84559 10.8089 9.03029C10.9623 9.4038 11.1319 9.81647 11.1617 9.87619C11.2063 9.96544 11.236 10.0695 11.1765 10.1886C11.1676 10.2064 11.1594 10.2233 11.1515 10.2394C11.1068 10.3305 11.074 10.3975 10.9983 10.486C10.9685 10.5208 10.9377 10.5583 10.9069 10.5957C10.8455 10.6704 10.7842 10.7451 10.7308 10.7983C10.6416 10.8873 10.5486 10.9837 10.6526 11.1622C10.7566 11.3407 11.1145 11.9245 11.6445 12.3973C12.2143 12.9055 12.7095 13.1203 12.9605 13.2292C13.0095 13.2505 13.0492 13.2677 13.0783 13.2823C13.2565 13.3715 13.3605 13.3566 13.4646 13.2377C13.5686 13.1187 13.9103 12.717 14.0291 12.5386C14.1479 12.3601 14.2668 12.3898 14.4302 12.4493C14.5937 12.5089 15.4703 12.9401 15.6486 13.0294C15.6834 13.0468 15.7159 13.0625 15.7461 13.0771Z" fill="#8883E2"/>
</svg>
