<svg width="24" height="24" viewBox="0 0 24 24" fill="none" xmlns="http://www.w3.org/2000/svg">
<path fill-rule="evenodd" clip-rule="evenodd" d="M12 0C5.37258 0 0 5.37258 0 12C0 18.6274 5.37258 24 12 24C18.6274 24 24 18.6274 24 12C24 5.37258 18.6274 0 12 0ZM9.36154 5.63869C10.0442 5.60762 10.2624 5.60002 12.0005 5.60002H11.9985C13.7372 5.60002 13.9545 5.60762 14.6372 5.63869C15.3185 5.66989 15.7839 5.77776 16.1919 5.93603C16.6132 6.09936 16.9692 6.31803 17.3252 6.67404C17.6812 7.02977 17.8999 7.38684 18.0639 7.80778C18.2212 8.21472 18.3292 8.67979 18.3612 9.36113C18.3919 10.0438 18.3999 10.2619 18.3999 12.0001C18.3999 13.7382 18.3919 13.9558 18.3612 14.6385C18.3292 15.3196 18.2212 15.7848 18.0639 16.1919C17.8999 16.6127 17.6812 16.9697 17.3252 17.3255C16.9696 17.6815 16.6131 17.9007 16.1923 18.0642C15.7851 18.2224 15.3195 18.3303 14.6381 18.3615C13.9555 18.3926 13.738 18.4002 11.9997 18.4002C10.2617 18.4002 10.0437 18.3926 9.36101 18.3615C8.6798 18.3303 8.2146 18.2224 7.80739 18.0642C7.38672 17.9007 7.02965 17.6815 6.67405 17.3255C6.31818 16.9697 6.09951 16.6127 5.93591 16.1917C5.77777 15.7848 5.6699 15.3197 5.63857 14.6384C5.60764 13.9557 5.5999 13.7382 5.5999 12.0001C5.5999 10.2619 5.6079 10.0437 5.63844 9.361C5.6691 8.67992 5.7771 8.21472 5.93577 7.80765C6.09977 7.38684 6.31844 7.02977 6.67445 6.67404C7.03018 6.31816 7.38725 6.0995 7.80819 5.93603C8.21513 5.77776 8.6802 5.66989 9.36154 5.63869Z" fill="#8883E2"/>
<path fill-rule="evenodd" clip-rule="evenodd" d="M11.4265 6.75337C11.538 6.7532 11.6579 6.75325 11.7873 6.75331L12.0006 6.75337C13.7094 6.75337 13.912 6.7595 14.5868 6.79017C15.2108 6.8187 15.5495 6.92297 15.7751 7.01057C16.0737 7.12657 16.2867 7.26524 16.5105 7.48924C16.7345 7.71325 16.8732 7.92658 16.9895 8.22525C17.0771 8.45059 17.1815 8.78926 17.2099 9.41326C17.2406 10.0879 17.2472 10.2906 17.2472 11.9986C17.2472 13.7066 17.2406 13.9093 17.2099 14.584C17.1813 15.208 17.0771 15.5467 16.9895 15.772C16.8735 16.0707 16.7345 16.2833 16.5105 16.5072C16.2865 16.7312 16.0739 16.8699 15.7751 16.9859C15.5497 17.0739 15.2108 17.1779 14.5868 17.2064C13.9121 17.2371 13.7094 17.2437 12.0006 17.2437C10.2917 17.2437 10.0891 17.2371 9.41447 17.2064C8.79046 17.1776 8.45179 17.0733 8.22606 16.9857C7.92739 16.8697 7.71405 16.7311 7.49005 16.5071C7.26605 16.2831 7.12738 16.0703 7.01111 15.7715C6.92351 15.5461 6.81911 15.2075 6.79071 14.5835C6.76004 13.9088 6.75391 13.7061 6.75391 11.997C6.75391 10.2879 6.76004 10.0863 6.79071 9.41166C6.81924 8.78766 6.92351 8.44899 7.01111 8.22339C7.12711 7.92472 7.26605 7.71138 7.49005 7.48738C7.71405 7.26338 7.92739 7.12471 8.22606 7.00844C8.45166 6.92044 8.79046 6.81644 9.41447 6.78777C10.0049 6.7611 10.2337 6.7531 11.4265 6.75177V6.75337ZM15.4169 7.81609C14.9929 7.81609 14.6489 8.1597 14.6489 8.58383C14.6489 9.00784 14.9929 9.35184 15.4169 9.35184C15.8409 9.35184 16.1849 9.00784 16.1849 8.58383C16.1849 8.15983 15.8409 7.81583 15.4169 7.81583V7.81609ZM8.71399 12C8.71399 10.185 10.1855 8.71341 12.0006 8.71334C13.8156 8.71334 15.2869 10.185 15.2869 12C15.2869 13.8151 13.8158 15.2861 12.0007 15.2861C10.1856 15.2861 8.71399 13.8151 8.71399 12Z" fill="#8883E2"/>
<path d="M12.0005 9.86664C13.1787 9.86664 14.1339 10.8217 14.1339 12C14.1339 13.1781 13.1787 14.1333 12.0005 14.1333C10.8223 14.1333 9.86719 13.1781 9.86719 12C9.86719 10.8217 10.8223 9.86664 12.0005 9.86664V9.86664Z" fill="#8883E2"/>
</svg>
