<svg width="48" height="48" viewBox="0 0 48 48" fill="none" xmlns="http://www.w3.org/2000/svg">
<path fill-rule="evenodd" clip-rule="evenodd" d="M3.77221 3.77574C3.65979 3.88826 3.59664 4.04087 3.59664 4.2V43.8C3.59664 43.9591 3.65979 44.1117 3.77221 44.2243C3.88462 44.3368 4.03709 44.4 4.19608 44.4H20.9804C21.4573 44.4 21.9147 44.5896 22.252 44.9272C22.5892 45.2648 22.7787 45.7226 22.7787 46.2C22.7787 46.6774 22.5892 47.1352 22.252 47.4728C21.9147 47.8104 21.4573 48 20.9804 48H4.19608C1.87984 48 0 46.1184 0 43.8V4.2C0 3.08609 0.442085 2.0178 1.229 1.23015C2.01592 0.442499 3.08321 0 4.19608 0H36.5658C37.6787 0 38.746 0.442499 39.5329 1.23015C40.3198 2.0178 40.7619 3.08609 40.7619 4.2V28.2C40.7619 28.6774 40.5724 29.1352 40.2352 29.4728C39.8979 29.8104 39.4405 30 38.9636 30C38.4866 30 38.0292 29.8104 37.692 29.4728C37.3547 29.1352 37.1652 28.6774 37.1652 28.2V4.2C37.1652 4.04087 37.1021 3.88826 36.9897 3.77574C36.8772 3.66321 36.7248 3.6 36.5658 3.6H4.19608C4.03709 3.6 3.88462 3.66321 3.77221 3.77574ZM8.91887 12.5272C9.25612 12.1896 9.71353 12 10.1905 12H30.5714C31.0483 12 31.5058 12.1896 31.843 12.5272C32.1803 12.8648 32.3697 13.3226 32.3697 13.8C32.3697 14.2774 32.1803 14.7352 31.843 15.0728C31.5058 15.4104 31.0483 15.6 30.5714 15.6H10.1905C9.71353 15.6 9.25612 15.4104 8.91887 15.0728C8.58162 14.7352 8.39215 14.2774 8.39215 13.8C8.39215 13.3226 8.58162 12.8648 8.91887 12.5272ZM8.91887 22.1272C8.58162 22.4648 8.39215 22.9226 8.39215 23.4C8.39215 23.8774 8.58162 24.3352 8.91887 24.6728C9.25612 25.0104 9.71353 25.2 10.1905 25.2H20.9804C21.4573 25.2 21.9147 25.0104 22.252 24.6728C22.5892 24.3352 22.7787 23.8774 22.7787 23.4C22.7787 22.9226 22.5892 22.4648 22.252 22.1272C21.9147 21.7896 21.4573 21.6 20.9804 21.6H10.1905C9.71353 21.6 9.25612 21.7896 8.91887 22.1272ZM47.8443 33.6877C47.746 33.9085 47.6043 34.1072 47.4276 34.272L34.24 47.472C33.9028 47.8091 33.4457 47.9984 32.9692 47.9984C32.4926 47.9984 32.0355 47.8091 31.6984 47.472L25.704 41.472C25.5273 41.3072 25.3856 41.1085 25.2873 40.8877C25.189 40.6669 25.1361 40.4285 25.1319 40.1869C25.1276 39.9452 25.172 39.7051 25.2625 39.481C25.3529 39.2568 25.4875 39.0532 25.6583 38.8823C25.8291 38.7114 26.0325 38.5766 26.2564 38.4861C26.4803 38.3956 26.7202 38.3511 26.9616 38.3554C27.2031 38.3596 27.4412 38.4125 27.6618 38.5109C27.8824 38.6093 28.0809 38.7511 28.2456 38.928L32.9692 43.656L44.886 31.728C45.0507 31.5512 45.2492 31.4093 45.4698 31.3109C45.6904 31.2125 45.9285 31.1596 46.17 31.1554C46.4114 31.1511 46.6513 31.1956 46.8752 31.2861C47.0991 31.3766 47.3025 31.5114 47.4733 31.6823C47.6441 31.8532 47.7787 32.0568 47.8691 32.281C47.9596 32.5051 48.004 32.7452 47.9997 32.9869C47.9955 33.2285 47.9426 33.4669 47.8443 33.6877Z" fill="#4772B2"/>
</svg>
