<svg width="32" height="32" viewBox="0 0 32 32" fill="none" xmlns="http://www.w3.org/2000/svg">
<path d="M15.6667 0C10.0127 0 5.4 4.57455 5.4 10.1818C5.4 13.6873 7.204 16.8 9.93787 18.6371C4.70627 20.8625 1 26.0116 1 32H3.93333C3.93333 25.5564 9.16933 20.3636 15.6667 20.3636C22.164 20.3636 27.4 25.5564 27.4 32H30.3333C30.3333 26.0116 26.6271 20.864 21.3955 18.6356C22.7908 17.7015 23.934 16.4425 24.7251 14.9687C25.5162 13.495 25.931 11.8514 25.9333 10.1818C25.9333 4.57455 21.3207 0 15.6667 0ZM15.6667 2.90909C19.7337 2.90909 23 6.14836 23 10.1818C23 14.2153 19.7337 17.4545 15.6667 17.4545C11.5996 17.4545 8.33333 14.2153 8.33333 10.1818C8.33333 6.14836 11.5996 2.90909 15.6667 2.90909Z" fill="#5B5B5B"/>
</svg>
