<svg width="146" height="33" viewBox="0 0 146 33" fill="none" xmlns="http://www.w3.org/2000/svg">
<path d="M0 29.0001H85.8567H87.6H89.5612L146 29V30L0 29.9518V29.0001Z" fill="#5B5B5B"/>
<path d="M0 10.9613H5.08304C7.52481 10.9613 9.4214 11.6336 10.7728 12.9782C12.1242 14.307 12.8 16.2844 12.8 18.9103V19.3849C12.8 20.7137 12.6157 21.8922 12.2471 22.9204C11.8939 23.9328 11.3717 24.7871 10.6807 25.4831C10.005 26.1633 9.17569 26.6853 8.19284 27.0492C7.20999 27.3972 6.02489 27.4548 4.78097 27.4548H0V10.9613ZM4.62233 25.1034C5.40554 25.1034 6.11964 25.0006 6.76463 24.795C7.42499 24.5893 7.98552 24.265 8.44623 23.8221C8.90694 23.3634 9.26015 22.7701 9.50587 22.0425C9.76694 21.3148 9.89747 20.4289 9.89747 19.3849V18.9103C9.89747 17.9454 9.76694 17.1149 9.50587 16.4188C9.2448 15.7228 8.89158 15.1533 8.44623 14.7104C8.00088 14.2675 7.46338 13.9432 6.83374 13.7375C6.21946 13.5319 5.55911 13.4291 4.85268 13.4291H2.6643V25.1034H4.62233Z" fill="#7C7C7C"/>
<path d="M20.9794 27.4526C20.1655 27.4526 18.6758 27.4526 18.6758 27.4526C17.954 27.1836 17.3167 26.7882 16.7639 26.2661C16.2264 25.7283 15.7964 25.056 15.4739 24.2492C15.1514 23.4425 14.9901 22.4933 14.9901 21.4018V20.9272C14.9901 19.8832 15.1437 18.9736 15.4508 18.1985C15.758 17.4233 16.1726 16.7827 16.6948 16.2765C17.2323 15.7544 17.8465 15.3669 18.5376 15.1138C19.2287 14.8607 19.9658 14.7341 20.749 14.7341C22.6072 14.7341 24.0277 15.2482 25.0106 16.2765C26.0088 17.3047 26.5079 18.7759 26.5079 20.69V22.0187H17.5701C17.5855 22.6673 17.6853 23.221 17.8696 23.6797C18.0692 24.1227 18.3226 24.4865 18.6297 24.7712C18.9522 25.0402 19.3131 25.2379 19.7124 25.3645C20.1271 25.491 20.5494 25.5543 20.9794 25.5543C21.8547 25.5543 22.492 25.4119 22.8913 25.1272C23.306 24.8424 23.5901 24.4707 23.7436 24.0119H26.2776C26.0318 25.2616 25.4252 26.2108 24.4577 26.8593C23.5056 27.5079 22.3462 27.4526 20.9794 27.4526ZM20.8642 17.0121C20.4342 17.0121 20.0196 17.0674 19.6203 17.1782C19.2364 17.2889 18.8908 17.4708 18.5837 17.7239C18.2919 17.9612 18.0539 18.2776 17.8696 18.673C17.6853 19.0527 17.5855 19.5194 17.5701 20.073H23.974C23.9586 19.4877 23.8665 18.9973 23.6976 18.6019C23.544 18.2064 23.329 17.89 23.0526 17.6527C22.7762 17.4154 22.446 17.2493 22.062 17.1544C21.6935 17.0595 21.2942 17.0121 20.8642 17.0121Z" fill="#7C7C7C"/>
<path d="M34.3418 27.4526C33.5279 27.4526 32.0382 27.4526 32.0382 27.4526C31.3165 27.1836 30.6792 26.7882 30.1263 26.2661C29.5888 25.7283 29.1588 25.056 28.8363 24.2492C28.5138 23.4425 28.3526 22.4933 28.3526 21.4018V20.9272C28.3526 19.8832 28.5061 18.9736 28.8133 18.1985C29.1204 17.4233 29.535 16.7827 30.0572 16.2765C30.5947 15.7544 31.209 15.3669 31.9 15.1138C32.5911 14.8607 33.3282 14.7341 34.1114 14.7341C35.9697 14.7341 37.3902 15.2482 38.373 16.2765C39.3712 17.3047 39.8703 18.7759 39.8703 20.69V22.0187H30.9325C30.9479 22.6673 31.0477 23.221 31.232 23.6797C31.4316 24.1227 31.685 24.4865 31.9922 24.7712C32.3147 25.0402 32.6756 25.2379 33.0748 25.3645C33.4895 25.491 33.9118 25.5543 34.3418 25.5543C35.2172 25.5543 35.8545 25.4119 36.2538 25.1272C36.6684 24.8424 36.9525 24.4707 37.1061 24.0119H39.64C39.3943 25.2616 38.7877 26.2108 37.8202 26.8593C36.868 27.5079 35.7086 27.4526 34.3418 27.4526ZM34.2266 17.0121C33.7966 17.0121 33.382 17.0674 32.9827 17.1782C32.5988 17.2889 32.2532 17.4708 31.9461 17.7239C31.6543 17.9612 31.4163 18.2776 31.232 18.673C31.0477 19.0527 30.9479 19.5194 30.9325 20.073H37.3364C37.3211 19.4877 37.2289 18.9973 37.06 18.6019C36.9064 18.2064 36.6914 17.89 36.415 17.6527C36.1386 17.4154 35.8084 17.2493 35.4245 17.1544C35.0559 17.0595 34.6566 17.0121 34.2266 17.0121Z" fill="#7C7C7C"/>
<path d="M42.406 14.9951H44.7557V17.107C45.1242 16.3793 45.6694 15.8019 46.3912 15.3748C47.1283 14.9477 47.9576 14.7341 48.879 14.7341C50.4762 14.7341 51.7355 15.2482 52.6569 16.2765C53.5783 17.3047 54.039 18.855 54.039 20.9272V21.4018C54.039 22.4775 53.9162 23.4187 53.6704 24.2255C53.4247 25.0323 53.0715 25.7046 52.6108 26.2424C52.1655 26.7644 51.699 26.962 51.0694 27.2309C50.4398 27.4999 49.6795 27.4548 48.8962 27.4548C48.0209 27.4548 46.5058 27.4548 46.5058 27.4548C45.784 27.0593 45.2471 26.2899 44.94 25.578V32.3169H42.406V14.9951ZM48.2801 25.5543C49.2323 25.5543 50.0001 25.2142 50.5837 24.534C51.1672 23.8537 51.459 22.8097 51.459 21.4018V20.9272C51.459 19.5984 51.1749 18.6177 50.6067 17.9849C50.0385 17.3363 49.263 17.0121 48.2801 17.0121C47.8501 17.0121 47.4355 17.0832 47.0362 17.2256C46.6369 17.368 46.276 17.5815 45.9535 17.8663C45.6464 18.1352 45.4007 18.4832 45.2164 18.9103C45.0321 19.3216 44.94 19.7962 44.94 20.334V21.995C44.94 22.5961 45.0321 23.1182 45.2164 23.5611C45.4007 24.004 45.6464 24.3758 45.9535 24.6763C46.2607 24.9769 46.6139 25.1984 47.0132 25.3407C47.4124 25.4831 47.8348 25.5543 48.2801 25.5543Z" fill="#7C7C7C"/>
<path d="M60.8399 13.4291H55.4265V10.9613H69.0175V13.4291H63.6042V27.5712H60.8399V13.4291Z" fill="#7C7C7C"/>
<path d="M75.4089 27.4548C74.5949 27.4548 72.013 27.4526 72.013 27.4526C71.2913 27.1836 70.6539 26.7882 70.1011 26.2661C69.5636 25.7283 69.1336 25.056 68.8111 24.2492C68.4886 23.4425 68.3274 22.4933 68.3274 21.4018V20.9272C68.3274 19.8832 68.4809 18.9736 68.7881 18.1985C69.0952 17.4233 69.5098 16.7827 70.032 16.2765C70.5695 15.7544 71.1838 15.3669 71.8748 15.1138C72.5659 14.8607 73.303 14.7341 74.0862 14.7341C75.9444 14.7341 77.365 15.2482 78.3478 16.2765C79.346 17.3047 79.8451 18.7759 79.8451 20.69V22.0187H70.9073C70.9227 22.6673 71.0225 23.221 71.2068 23.6797C71.4064 24.1227 71.6598 24.4865 71.967 24.7712C72.2895 25.0402 72.6504 25.2379 73.0496 25.3645C73.4643 25.491 73.8866 25.5543 74.3166 25.5543C75.1919 25.5543 75.8293 25.4119 76.2285 25.1272C76.6432 24.8424 76.9273 24.4707 77.0809 24.0119H79.6148C79.3691 25.2616 78.7625 26.2108 77.795 26.8593C76.8428 27.5079 76.7756 27.4548 75.4089 27.4548ZM74.2014 17.0121C73.7714 17.0121 73.3568 17.0674 72.9575 17.1782C72.5736 17.2889 72.228 17.4708 71.9209 17.7239C71.6291 17.9612 71.3911 18.2776 71.2068 18.673C71.0225 19.0527 70.9227 19.5194 70.9073 20.073H77.3112C77.2959 19.4877 77.2037 18.9973 77.0348 18.6019C76.8812 18.2064 76.6662 17.89 76.3898 17.6527C76.1134 17.4154 75.7832 17.2493 75.3993 17.1544C75.0307 17.0595 74.6314 17.0121 74.2014 17.0121Z" fill="#7C7C7C"/>
<path d="M87.3613 27.5712C86.532 27.5712 85.8401 27.5712 85.1881 27.5712C84.4971 27.3023 83.8474 26.7803 83.3253 26.2424C82.8185 25.7046 82.4192 25.0323 82.1275 24.2255C81.8357 23.4187 81.6898 22.4775 81.6898 21.4018V20.9272C81.6898 19.9148 81.8433 19.0211 82.1505 18.2459C82.4576 17.4708 82.8723 16.8222 83.3944 16.3002C83.9319 15.7782 84.5462 15.3906 85.2373 15.1375C85.9437 14.8686 86.6808 14.7341 87.4487 14.7341C88.2472 14.7341 88.9537 14.8449 89.5679 15.0663C90.1976 15.2878 90.7274 15.5963 91.1574 15.9917C91.6027 16.3714 91.956 16.8222 92.217 17.3443C92.4781 17.8663 92.6547 18.4278 92.7468 19.029H90.1669C90.0133 18.4437 89.7369 17.9612 89.3376 17.5815C88.9383 17.2019 88.3087 17.0121 87.4487 17.0121C87.0187 17.0121 86.6117 17.0911 86.2278 17.2493C85.8439 17.3917 85.506 17.6211 85.2142 17.9375C84.9224 18.2538 84.6921 18.6651 84.5232 19.1713C84.3542 19.6617 84.2698 20.247 84.2698 20.9272V21.4018C84.2698 22.1453 84.3542 22.786 84.5232 23.3238C84.6921 23.8458 84.9224 24.2729 85.2142 24.6051C85.506 24.9373 85.8439 25.1825 86.2278 25.3407C86.6117 25.4831 87.0187 25.5543 87.4487 25.5543C88.8769 25.5543 89.7829 24.882 90.1669 23.5374H92.7468C92.624 24.2018 92.409 24.8029 92.1019 25.3407C91.8101 25.8628 91.4338 26.3136 90.9731 26.6932C90.5124 27.0571 89.9161 27.3656 89.3171 27.5712C88.816 27.5949 88.0524 27.5712 87.3613 27.5712Z" fill="#7C7C7C"/>
<path d="M95.1584 10.9613H97.6923V16.9883C97.8305 16.7036 98.0071 16.4268 98.2221 16.1578C98.4371 15.8731 98.6982 15.6279 99.0053 15.4222C99.3278 15.2166 99.6887 15.0505 100.088 14.924C100.503 14.7974 100.971 14.7341 101.493 14.7341C102.983 14.7341 104.104 15.1533 104.856 15.9917C105.609 16.8143 105.985 18.0245 105.985 19.6222V27.5712H103.451V20.2154C103.451 19.1555 103.236 18.3567 102.806 17.8188C102.376 17.281 101.67 17.0121 100.687 17.0121C100.149 17.0121 99.6887 17.107 99.3048 17.2968C98.9362 17.4708 98.6291 17.7081 98.3834 18.0086C98.153 18.2934 97.9764 18.6335 97.8535 19.029C97.746 19.4086 97.6923 19.8041 97.6923 20.2154V27.5712H95.1584V10.9613Z" fill="#7C7C7C"/>
<path d="M124.484 7.46774H132.677C133.506 7.46774 134.177 8.13932 134.177 8.96774V16.2903C134.177 17.1188 133.506 17.7903 132.677 17.7903H124.484C123.655 17.7903 122.984 17.1188 122.984 16.2903V8.96774C122.984 8.13932 123.655 7.46774 124.484 7.46774Z" fill="url(#paint0_linear)" stroke="#7C7C7C"/>
<path d="M124.484 21.4032H132.677C133.506 21.4032 134.177 22.0748 134.177 22.9032V25C134.177 25.8284 133.506 26.5 132.677 26.5H124.484C123.655 26.5 122.984 25.8284 122.984 25V22.9032C122.984 22.0748 123.655 21.4032 124.484 21.4032Z" fill="url(#paint1_linear)" stroke="#7C7C7C"/>
<path d="M137.548 7.46774H144C144.828 7.46774 145.5 8.13932 145.5 8.96774V13.6774C145.5 14.5058 144.828 15.1774 144 15.1774H137.548C136.72 15.1774 136.048 14.5058 136.048 13.6774V8.96774C136.048 8.13932 136.72 7.46774 137.548 7.46774Z" fill="url(#paint2_linear)" stroke="#7C7C7C"/>
<path d="M137.227 16.6591H144C144.828 16.6591 145.5 17.3307 145.5 18.1591V25C145.5 25.8284 144.828 26.5 144 26.5H137.227C136.399 26.5 135.727 25.8284 135.727 25V18.1591C135.727 17.3307 136.399 16.6591 137.227 16.6591Z" fill="url(#paint3_linear)" stroke="#7C7C7C"/>
<path d="M117.516 18.7903H119.613C120.441 18.7903 121.113 19.4619 121.113 20.2903V25C121.113 25.8284 120.441 26.5 119.613 26.5H117.516C116.688 26.5 116.016 25.8284 116.016 25V20.2903C116.016 19.4619 116.688 18.7903 117.516 18.7903Z" fill="url(#paint4_linear)" stroke="#7C7C7C"/>
<path d="M117.516 7.46774L119.613 7.46774C120.441 7.46774 121.113 8.13932 121.113 8.96774V15.4194C121.113 16.2478 120.441 16.9194 119.613 16.9194H117.516C116.688 16.9194 116.016 16.2478 116.016 15.4194V8.96775C116.016 8.13932 116.688 7.46774 117.516 7.46774Z" fill="url(#paint5_linear)" stroke="#7C7C7C"/>
<rect x="127.71" y="26.129" width="1.74194" height="0.870968" rx="0.435484" fill="#B9B9B9"/>
<rect width="1.74194" height="0.870967" rx="0.435483" transform="matrix(-1 0 0 1 141.645 14.8064)" fill="#B9B9B9"/>
<rect width="1.74194" height="0.870968" rx="0.435484" transform="matrix(-1 0 0 1 141.645 26.129)" fill="#B9B9B9"/>
<path d="M129.452 18.2903H127.71L125.097 20.0323H132.065L129.452 18.2903Z" fill="#7C7C7C"/>
<rect x="118.129" y="16.5484" width="0.870968" height="0.870966" rx="0.435483" fill="#B9B9B9"/>
<rect x="118.129" y="26.129" width="0.870968" height="0.870968" rx="0.435484" fill="#B9B9B9"/>
<defs>
<linearGradient id="paint0_linear" x1="128.581" y1="6.96774" x2="128.581" y2="18.2903" gradientUnits="userSpaceOnUse">
<stop stop-color="#7C7C7C"/>
<stop offset="1" stop-color="#7C7C7C" stop-opacity="0"/>
</linearGradient>
<linearGradient id="paint1_linear" x1="128.581" y1="20.9032" x2="128.581" y2="27" gradientUnits="userSpaceOnUse">
<stop stop-color="#7C7C7C"/>
<stop offset="1" stop-color="#7C7C7C" stop-opacity="0"/>
</linearGradient>
<linearGradient id="paint2_linear" x1="140.774" y1="6.96774" x2="140.774" y2="15.6774" gradientUnits="userSpaceOnUse">
<stop stop-color="#7C7C7C"/>
<stop offset="1" stop-color="#7C7C7C" stop-opacity="0"/>
</linearGradient>
<linearGradient id="paint3_linear" x1="140.614" y1="16.1591" x2="140.614" y2="27" gradientUnits="userSpaceOnUse">
<stop stop-color="#7C7C7C"/>
<stop offset="1" stop-color="#7C7C7C" stop-opacity="0"/>
</linearGradient>
<linearGradient id="paint4_linear" x1="118.565" y1="18.2903" x2="118.565" y2="27" gradientUnits="userSpaceOnUse">
<stop stop-color="#7C7C7C"/>
<stop offset="1" stop-color="#7C7C7C" stop-opacity="0"/>
</linearGradient>
<linearGradient id="paint5_linear" x1="118.565" y1="6.96774" x2="118.565" y2="17.4194" gradientUnits="userSpaceOnUse">
<stop stop-color="#7C7C7C"/>
<stop offset="1" stop-color="#7C7C7C" stop-opacity="0"/>
</linearGradient>
</defs>
</svg>
