<svg width="173" height="37" viewBox="0 0 173 37" fill="none" xmlns="http://www.w3.org/2000/svg">
<path d="M0 33.0001H101.734H103.8H106.124L173 33V34L0 33.9518V33.0001Z" fill="#3A5B8D"/>
<path d="M0 10.5671H6.2851C9.30431 10.5671 11.6494 11.3984 13.3204 13.061C14.9914 14.7041 15.8269 17.149 15.8269 20.396V20.9828C15.8269 22.6258 15.5991 24.083 15.1433 25.3544C14.7066 26.6062 14.061 27.6625 13.2065 28.5231C12.371 29.3642 11.3456 30.0097 10.1303 30.4595C8.91504 30.8899 7.44968 30.9611 5.91159 30.9611H0V10.5671ZM5.71543 28.0537C6.68386 28.0537 7.56684 27.9265 8.36436 27.6723C9.18088 27.418 9.87397 27.017 10.4436 26.4693C11.0133 25.9021 11.45 25.1686 11.7539 24.2688C12.0767 23.3691 12.2381 22.2737 12.2381 20.9828V20.396C12.2381 19.2028 12.0767 18.1759 11.7539 17.3153C11.431 16.4547 10.9943 15.7505 10.4436 15.2028C9.89296 14.6552 9.22835 14.2542 8.44981 13.9999C7.69026 13.7456 6.87375 13.6185 6.00027 13.6185H3.29437V28.0537H5.71543Z" fill="#4772B2"/>
<path d="M25.9407 30.9583C24.9343 30.9583 23.0924 30.9583 23.0924 30.9583C22.1999 30.6258 21.4119 30.1368 20.7283 29.4913C20.0637 28.8263 19.532 27.995 19.1332 26.9974C18.7344 25.9999 18.5351 24.8263 18.5351 23.4767V22.8899C18.5351 21.5989 18.7249 20.4742 19.1047 19.5158C19.4845 18.5573 19.9972 17.7652 20.6428 17.1393C21.3074 16.4938 22.067 16.0146 22.9215 15.7016C23.776 15.3886 24.6874 15.2322 25.6558 15.2322C27.9535 15.2322 29.7099 15.8679 30.9252 17.1393C32.1595 18.4107 32.7766 20.2297 32.7766 22.5965V24.2395H21.7252C21.7442 25.0415 21.8676 25.726 22.0954 26.2933C22.3423 26.841 22.6556 27.2908 23.0354 27.6429C23.4342 27.9754 23.8804 28.2199 24.3741 28.3764C24.8868 28.5329 25.409 28.6111 25.9407 28.6111C27.023 28.6111 27.8111 28.4351 28.3048 28.083C28.8175 27.7309 29.1688 27.2713 29.3586 26.704H32.4918C32.188 28.2493 31.4379 29.4229 30.2416 30.2248C29.0643 31.0268 27.6307 30.9583 25.9407 30.9583ZM25.7983 18.0488C25.2666 18.0488 24.7539 18.1173 24.2602 18.2542C23.7854 18.3911 23.3582 18.616 22.9784 18.929C22.6176 19.2224 22.3233 19.6136 22.0954 20.1026C21.8676 20.572 21.7442 21.149 21.7252 21.8336H29.6435C29.6245 21.1099 29.5106 20.5036 29.3017 20.0146C29.1118 19.5256 28.8459 19.1344 28.5041 18.841C28.1624 18.5476 27.7541 18.3422 27.2794 18.2248C26.8236 18.1075 26.3299 18.0488 25.7983 18.0488Z" fill="#4772B2"/>
<path d="M42.4631 30.9583C41.4567 30.9583 39.6148 30.9583 39.6148 30.9583C38.7223 30.6258 37.9343 30.1368 37.2507 29.4913C36.5861 28.8263 36.0544 27.995 35.6556 26.9974C35.2569 25.9999 35.0575 24.8263 35.0575 23.4767V22.8899C35.0575 21.5989 35.2474 20.4742 35.6272 19.5158C36.0069 18.5573 36.5196 17.7652 37.1652 17.1393C37.8298 16.4938 38.5894 16.0146 39.4439 15.7016C40.2984 15.3886 41.2098 15.2322 42.1783 15.2322C44.4759 15.2322 46.2324 15.8679 47.4476 17.1393C48.6819 18.4107 49.299 20.2297 49.299 22.5965V24.2395H38.2476C38.2666 25.0415 38.39 25.726 38.6179 26.2933C38.8647 26.841 39.178 27.2908 39.5578 27.6429C39.9566 27.9754 40.4028 28.2199 40.8965 28.3764C41.4092 28.5329 41.9314 28.6111 42.4631 28.6111C43.5455 28.6111 44.3335 28.4351 44.8272 28.083C45.3399 27.7309 45.6912 27.2713 45.8811 26.704H49.0142C48.7104 28.2493 47.9603 29.4229 46.764 30.2248C45.5867 31.0268 44.1531 30.9583 42.4631 30.9583ZM42.3207 18.0488C41.789 18.0488 41.2763 18.1173 40.7826 18.2542C40.3079 18.3911 39.8806 18.616 39.5009 18.929C39.1401 19.2224 38.8457 19.6136 38.6179 20.1026C38.39 20.572 38.2666 21.149 38.2476 21.8336H46.1659C46.1469 21.1099 46.033 20.5036 45.8241 20.0146C45.6342 19.5256 45.3684 19.1344 45.0266 18.841C44.6848 18.5476 44.2765 18.3422 43.8018 18.2248C43.3461 18.1075 42.8524 18.0488 42.3207 18.0488Z" fill="#4772B2"/>
<path d="M52.4344 15.5549H55.3397V18.1662C55.7954 17.2664 56.4695 16.5525 57.362 16.0243C58.2734 15.4962 59.2988 15.2322 60.4382 15.2322C62.413 15.2322 63.9701 15.8679 65.1094 17.1393C66.2487 18.4107 66.8184 20.3275 66.8184 22.8899V23.4767C66.8184 24.8067 66.6665 25.9705 66.3627 26.9681C66.0588 27.9657 65.6221 28.7969 65.0524 29.462C64.5018 30.1075 63.9251 30.3518 63.1465 30.6843C62.368 31.0168 61.4279 30.9611 60.4594 30.9611C59.3771 30.9611 57.5036 30.9611 57.5036 30.9611C56.6112 30.4721 55.9473 29.5207 55.5676 28.6405V36.973H52.4344V15.5549ZM59.6976 28.6111C60.8749 28.6111 61.8243 28.1906 62.5459 27.3495C63.2675 26.5084 63.6283 25.2175 63.6283 23.4767V22.8899C63.6283 21.2468 63.277 20.0341 62.5744 19.2517C61.8718 18.4498 60.9129 18.0488 59.6976 18.0488C59.1659 18.0488 58.6532 18.1368 58.1595 18.3129C57.6658 18.4889 57.2196 18.7529 56.8208 19.105C56.441 19.4375 56.1372 19.8679 55.9094 20.396C55.6815 20.9045 55.5676 21.4913 55.5676 22.1564V24.2102C55.5676 24.9534 55.6815 25.5989 55.9094 26.1466C56.1372 26.6943 56.441 27.1539 56.8208 27.5256C57.2006 27.8972 57.6373 28.171 58.131 28.3471C58.6247 28.5231 59.1469 28.6111 59.6976 28.6111Z" fill="#4772B2"/>
<path d="M75.2276 13.6185H68.534V10.5671H85.3391V13.6185H78.6455V31.105H75.2276V13.6185Z" fill="#4772B2"/>
<path d="M93.2419 30.9611C92.2355 30.9611 89.043 30.9583 89.043 30.9583C88.1505 30.6258 87.3625 30.1368 86.6789 29.4913C86.0143 28.8263 85.4826 27.995 85.0838 26.9974C84.6851 25.9999 84.4857 24.8263 84.4857 23.4767V22.8899C84.4857 21.5989 84.6756 20.4742 85.0554 19.5158C85.4351 18.5573 85.9478 17.7652 86.5934 17.1393C87.2581 16.4938 88.0176 16.0146 88.8721 15.7016C89.7266 15.3886 90.638 15.2322 91.6065 15.2322C93.9041 15.2322 95.6606 15.8679 96.8758 17.1393C98.1101 18.4107 98.7272 20.2297 98.7272 22.5965V24.2395H87.6758C87.6948 25.0415 87.8182 25.726 88.0461 26.2933C88.2929 26.841 88.6063 27.2908 88.986 27.6429C89.3848 27.9754 89.831 28.2199 90.3247 28.3764C90.8374 28.5329 91.3596 28.6111 91.8913 28.6111C92.9737 28.6111 93.7617 28.4351 94.2554 28.083C94.7681 27.7309 95.1194 27.2713 95.3093 26.704H98.4424C98.1386 28.2493 97.3885 29.4229 96.1923 30.2248C95.015 31.0268 94.9319 30.9611 93.2419 30.9611ZM91.7489 18.0488C91.2172 18.0488 90.7045 18.1173 90.2108 18.2542C89.7361 18.3911 89.3088 18.616 88.9291 18.929C88.5683 19.2224 88.2739 19.6136 88.0461 20.1026C87.8182 20.572 87.6948 21.149 87.6758 21.8336H95.5941C95.5751 21.1099 95.4612 20.5036 95.2523 20.0146C95.0624 19.5256 94.7966 19.1344 94.4548 18.841C94.113 18.5476 93.7047 18.3422 93.23 18.2248C92.7743 18.1075 92.2806 18.0488 91.7489 18.0488Z" fill="#4772B2"/>
<path d="M108.021 31.105C106.995 31.105 106.14 31.105 105.334 31.105C104.479 30.7725 103.676 30.127 103.03 29.462C102.404 28.7969 101.91 27.9657 101.549 26.9681C101.189 25.9705 101.008 24.8067 101.008 23.4767V22.8899C101.008 21.638 101.198 20.5329 101.578 19.5745C101.958 18.616 102.47 17.8141 103.116 17.1686C103.78 16.5231 104.54 16.0439 105.395 15.7309C106.268 15.3984 107.179 15.2322 108.129 15.2322C109.116 15.2322 109.99 15.3691 110.749 15.6429C111.528 15.9168 112.183 16.2982 112.715 16.7872C113.265 17.2566 113.702 17.8141 114.025 18.4596C114.348 19.105 114.566 19.7994 114.68 20.5427H111.49C111.3 19.819 110.958 19.2224 110.465 18.7529C109.971 18.2835 109.192 18.0488 108.129 18.0488C107.597 18.0488 107.094 18.1466 106.619 18.3422C106.145 18.5182 105.727 18.8018 105.366 19.193C105.005 19.5842 104.72 20.0928 104.512 20.7187C104.303 21.3251 104.198 22.0488 104.198 22.8899V23.4767C104.198 24.396 104.303 25.1881 104.512 25.8532C104.72 26.4987 105.005 27.0268 105.366 27.4375C105.727 27.8483 106.145 28.1515 106.619 28.3471C107.094 28.5231 107.597 28.6111 108.129 28.6111C109.895 28.6111 111.015 27.7798 111.49 26.1172H114.68C114.528 26.9388 114.262 27.682 113.882 28.3471C113.522 28.9925 113.056 29.55 112.487 30.0194C111.917 30.4693 111.18 30.8507 110.439 31.105C109.82 31.1344 108.875 31.105 108.021 31.105Z" fill="#4772B2"/>
<path d="M117.662 10.5671H120.795V18.0195C120.966 17.6674 121.184 17.3251 121.45 16.9926C121.716 16.6405 122.039 16.3373 122.419 16.083C122.817 15.8287 123.264 15.6234 123.757 15.4669C124.27 15.3104 124.849 15.2322 125.495 15.2322C127.337 15.2322 128.723 15.7505 129.653 16.7872C130.584 17.8043 131.049 19.3006 131.049 21.2762V31.105H127.916V22.0097C127.916 20.6992 127.65 19.7114 127.118 19.0463C126.587 18.3813 125.713 18.0488 124.498 18.0488C123.833 18.0488 123.264 18.1662 122.789 18.4009C122.333 18.616 121.953 18.9094 121.649 19.2811C121.365 19.6331 121.146 20.0537 120.994 20.5427C120.861 21.0121 120.795 21.5011 120.795 22.0097V31.105H117.662V10.5671Z" fill="#4772B2"/>
<path d="M0 10.5671H6.2851C9.30431 10.5671 11.6494 11.3984 13.3204 13.061C14.9914 14.7041 15.8269 17.149 15.8269 20.396V20.9828C15.8269 22.6258 15.5991 24.083 15.1433 25.3544C14.7066 26.6062 14.061 27.6625 13.2065 28.5231C12.371 29.3642 11.3456 30.0097 10.1303 30.4595C8.91504 30.8899 7.44968 30.9611 5.91159 30.9611H0V10.5671ZM5.71544 28.0537C6.68386 28.0537 7.56684 27.9265 8.36436 27.6723C9.18088 27.418 9.87397 27.017 10.4436 26.4693C11.0133 25.9021 11.45 25.1686 11.7539 24.2688C12.0767 23.3691 12.2381 22.2737 12.2381 20.9828V20.396C12.2381 19.2028 12.0767 18.1759 11.7539 17.3153C11.431 16.4547 10.9943 15.7505 10.4436 15.2028C9.89296 14.6552 9.22835 14.2542 8.44981 13.9999C7.69026 13.7456 6.87375 13.6185 6.00027 13.6185H3.29437V28.0537H5.71544Z" fill="#4772B2"/>
<path d="M25.9407 30.9583C24.9343 30.9583 23.0924 30.9583 23.0924 30.9583C22.1999 30.6258 21.4119 30.1368 20.7283 29.4913C20.0637 28.8263 19.532 27.995 19.1332 26.9974C18.7344 25.9999 18.5351 24.8263 18.5351 23.4767V22.8899C18.5351 21.5989 18.7249 20.4742 19.1047 19.5158C19.4845 18.5573 19.9972 17.7652 20.6428 17.1393C21.3074 16.4938 22.067 16.0146 22.9215 15.7016C23.776 15.3886 24.6874 15.2322 25.6558 15.2322C27.9535 15.2322 29.7099 15.8679 30.9252 17.1393C32.1595 18.4107 32.7766 20.2297 32.7766 22.5965V24.2395H21.7252C21.7442 25.0415 21.8676 25.726 22.0954 26.2933C22.3423 26.841 22.6556 27.2908 23.0354 27.6429C23.4342 27.9754 23.8804 28.2199 24.3741 28.3764C24.8868 28.5329 25.409 28.6111 25.9407 28.6111C27.023 28.6111 27.8111 28.4351 28.3048 28.083C28.8175 27.7309 29.1688 27.2713 29.3586 26.704H32.4918C32.188 28.2493 31.4379 29.4229 30.2416 30.2248C29.0643 31.0268 27.6307 30.9583 25.9407 30.9583ZM25.7983 18.0488C25.2666 18.0488 24.7539 18.1173 24.2602 18.2542C23.7854 18.3911 23.3582 18.616 22.9784 18.929C22.6176 19.2224 22.3233 19.6136 22.0954 20.1026C21.8676 20.572 21.7442 21.149 21.7252 21.8336H29.6435C29.6245 21.1099 29.5106 20.5036 29.3017 20.0146C29.1118 19.5256 28.8459 19.1344 28.5041 18.841C28.1624 18.5476 27.7541 18.3422 27.2794 18.2248C26.8236 18.1075 26.3299 18.0488 25.7983 18.0488Z" fill="#4772B2"/>
<path d="M42.4631 30.9583C41.4567 30.9583 39.6148 30.9583 39.6148 30.9583C38.7223 30.6258 37.9343 30.1368 37.2507 29.4913C36.5861 28.8263 36.0544 27.995 35.6556 26.9974C35.2569 25.9999 35.0575 24.8263 35.0575 23.4767V22.8899C35.0575 21.5989 35.2474 20.4742 35.6272 19.5158C36.0069 18.5573 36.5196 17.7652 37.1652 17.1393C37.8298 16.4938 38.5894 16.0146 39.4439 15.7016C40.2984 15.3886 41.2098 15.2322 42.1783 15.2322C44.4759 15.2322 46.2324 15.8679 47.4476 17.1393C48.6819 18.4107 49.299 20.2297 49.299 22.5965V24.2395H38.2476C38.2666 25.0415 38.39 25.726 38.6179 26.2933C38.8647 26.841 39.178 27.2908 39.5578 27.6429C39.9566 27.9754 40.4028 28.2199 40.8965 28.3764C41.4092 28.5329 41.9314 28.6111 42.4631 28.6111C43.5455 28.6111 44.3335 28.4351 44.8272 28.083C45.3399 27.7309 45.6912 27.2713 45.8811 26.704H49.0142C48.7104 28.2493 47.9603 29.4229 46.764 30.2248C45.5867 31.0268 44.1531 30.9583 42.4631 30.9583ZM42.3207 18.0488C41.789 18.0488 41.2763 18.1173 40.7826 18.2542C40.3079 18.3911 39.8806 18.616 39.5009 18.929C39.1401 19.2224 38.8457 19.6136 38.6179 20.1026C38.39 20.572 38.2666 21.149 38.2476 21.8336H46.1659C46.1469 21.1099 46.033 20.5036 45.8241 20.0146C45.6342 19.5256 45.3684 19.1344 45.0266 18.841C44.6848 18.5476 44.2765 18.3422 43.8018 18.2248C43.3461 18.1075 42.8524 18.0488 42.3207 18.0488Z" fill="#4772B2"/>
<path d="M52.4344 15.5549H55.3397V18.1662C55.7954 17.2664 56.4695 16.5525 57.362 16.0243C58.2734 15.4962 59.2988 15.2322 60.4382 15.2322C62.413 15.2322 63.9701 15.8679 65.1094 17.1393C66.2487 18.4107 66.8184 20.3275 66.8184 22.8899V23.4767C66.8184 24.8067 66.6665 25.9705 66.3627 26.9681C66.0588 27.9657 65.6221 28.7969 65.0524 29.462C64.5018 30.1075 63.9251 30.3518 63.1465 30.6843C62.368 31.0168 61.4279 30.9611 60.4594 30.9611C59.3771 30.9611 57.5036 30.9611 57.5036 30.9611C56.6112 30.4721 55.9473 29.5207 55.5676 28.6405V36.973H52.4344V15.5549ZM59.6976 28.6111C60.8749 28.6111 61.8243 28.1906 62.5459 27.3495C63.2675 26.5084 63.6283 25.2175 63.6283 23.4767V22.8899C63.6283 21.2468 63.277 20.0341 62.5744 19.2517C61.8718 18.4498 60.9129 18.0488 59.6976 18.0488C59.1659 18.0488 58.6532 18.1368 58.1595 18.3129C57.6658 18.4889 57.2196 18.7529 56.8208 19.105C56.441 19.4375 56.1372 19.8679 55.9094 20.396C55.6815 20.9045 55.5676 21.4913 55.5676 22.1564V24.2102C55.5676 24.9534 55.6815 25.5989 55.9094 26.1466C56.1372 26.6943 56.441 27.1539 56.8208 27.5256C57.2006 27.8972 57.6373 28.171 58.131 28.3471C58.6247 28.5231 59.1469 28.6111 59.6976 28.6111Z" fill="#4772B2"/>
<path d="M75.2276 13.6185H68.534V10.5671H85.3391V13.6185H78.6455V31.105H75.2276V13.6185Z" fill="#4772B2"/>
<path d="M93.2419 30.9611C92.2355 30.9611 89.043 30.9583 89.043 30.9583C88.1505 30.6258 87.3625 30.1368 86.6789 29.4913C86.0143 28.8263 85.4826 27.995 85.0838 26.9974C84.6851 25.9999 84.4857 24.8263 84.4857 23.4767V22.8899C84.4857 21.5989 84.6756 20.4742 85.0554 19.5158C85.4351 18.5573 85.9478 17.7652 86.5935 17.1393C87.2581 16.4938 88.0176 16.0146 88.8721 15.7016C89.7266 15.3886 90.638 15.2322 91.6065 15.2322C93.9041 15.2322 95.6606 15.8679 96.8758 17.1393C98.1101 18.4107 98.7272 20.2297 98.7272 22.5965V24.2395H87.6758C87.6948 25.0415 87.8182 25.726 88.0461 26.2933C88.2929 26.841 88.6063 27.2908 88.986 27.6429C89.3848 27.9754 89.831 28.2199 90.3247 28.3764C90.8374 28.5329 91.3596 28.6111 91.8913 28.6111C92.9737 28.6111 93.7617 28.4351 94.2554 28.083C94.7681 27.7309 95.1194 27.2713 95.3093 26.704H98.4424C98.1386 28.2493 97.3885 29.4229 96.1923 30.2248C95.015 31.0268 94.9319 30.9611 93.2419 30.9611ZM91.7489 18.0488C91.2172 18.0488 90.7045 18.1173 90.2108 18.2542C89.7361 18.3911 89.3088 18.616 88.9291 18.929C88.5683 19.2224 88.2739 19.6136 88.0461 20.1026C87.8182 20.572 87.6948 21.149 87.6758 21.8336H95.5941C95.5751 21.1099 95.4612 20.5036 95.2523 20.0146C95.0624 19.5256 94.7966 19.1344 94.4548 18.841C94.113 18.5476 93.7047 18.3422 93.23 18.2248C92.7743 18.1075 92.2806 18.0488 91.7489 18.0488Z" fill="#4772B2"/>
<path d="M108.021 31.105C106.995 31.105 106.14 31.105 105.334 31.105C104.479 30.7725 103.676 30.127 103.03 29.462C102.404 28.7969 101.91 27.9657 101.549 26.9681C101.189 25.9705 101.008 24.8067 101.008 23.4767V22.8899C101.008 21.638 101.198 20.5329 101.578 19.5745C101.958 18.616 102.47 17.8141 103.116 17.1686C103.78 16.5231 104.54 16.0439 105.395 15.7309C106.268 15.3984 107.179 15.2322 108.129 15.2322C109.116 15.2322 109.99 15.3691 110.749 15.6429C111.528 15.9168 112.183 16.2982 112.715 16.7872C113.265 17.2566 113.702 17.8141 114.025 18.4596C114.348 19.105 114.566 19.7994 114.68 20.5427H111.49C111.3 19.819 110.958 19.2224 110.465 18.7529C109.971 18.2835 109.192 18.0488 108.129 18.0488C107.597 18.0488 107.094 18.1466 106.619 18.3422C106.145 18.5182 105.727 18.8018 105.366 19.193C105.005 19.5842 104.72 20.0928 104.512 20.7187C104.303 21.3251 104.198 22.0488 104.198 22.8899V23.4767C104.198 24.396 104.303 25.1881 104.512 25.8532C104.72 26.4987 105.005 27.0268 105.366 27.4375C105.727 27.8483 106.145 28.1515 106.619 28.3471C107.094 28.5231 107.597 28.6111 108.129 28.6111C109.895 28.6111 111.015 27.7798 111.49 26.1172H114.68C114.528 26.9388 114.262 27.682 113.882 28.3471C113.522 28.9925 113.056 29.55 112.487 30.0194C111.917 30.4693 111.18 30.8507 110.439 31.105C109.82 31.1344 108.875 31.105 108.021 31.105Z" fill="#4772B2"/>
<path d="M117.662 10.5671H120.795V18.0195C120.966 17.6674 121.184 17.3251 121.45 16.9926C121.716 16.6405 122.039 16.3373 122.419 16.083C122.817 15.8287 123.264 15.6234 123.757 15.4669C124.27 15.3104 124.849 15.2322 125.495 15.2322C127.337 15.2322 128.723 15.7505 129.653 16.7872C130.584 17.8043 131.049 19.3006 131.049 21.2762V31.105H127.916V22.0097C127.916 20.6992 127.65 19.7114 127.118 19.0463C126.587 18.3813 125.713 18.0488 124.498 18.0488C123.833 18.0488 123.264 18.1662 122.789 18.4009C122.333 18.616 121.953 18.9094 121.649 19.2811C121.365 19.6331 121.146 20.0537 120.994 20.5427C120.861 21.0121 120.795 21.5011 120.795 22.0097V31.105H117.662V10.5671Z" fill="#4772B2"/>
<path d="M148 8.5H158C158.828 8.5 159.5 9.17157 159.5 10V19C159.5 19.8284 158.828 20.5 158 20.5H148C147.172 20.5 146.5 19.8284 146.5 19V10C146.5 9.17157 147.172 8.5 148 8.5Z" fill="url(#paint0_linear)" stroke="#4772B2"/>
<path d="M148 24.5H158C158.828 24.5 159.5 25.1716 159.5 26V29C159.5 29.8284 158.828 30.5 158 30.5H148C147.172 30.5 146.5 29.8284 146.5 29V26C146.5 25.1716 147.172 24.5 148 24.5Z" fill="url(#paint1_linear)" stroke="#4772B2"/>
<path d="M163 8.5H171C171.828 8.5 172.5 9.17157 172.5 10V16C172.5 16.8284 171.828 17.5 171 17.5H163C162.172 17.5 161.5 16.8284 161.5 16V10C161.5 9.17157 162.172 8.5 163 8.5Z" fill="url(#paint2_linear)" stroke="#4772B2"/>
<path d="M162.631 19.053H171C171.828 19.053 172.5 19.7246 172.5 20.553V29C172.5 29.8284 171.828 30.5 171 30.5H162.631C161.803 30.5 161.131 29.8284 161.131 29V20.553C161.131 19.7246 161.803 19.053 162.631 19.053Z" fill="url(#paint3_linear)" stroke="#4772B2"/>
<path d="M140 21.5H143C143.828 21.5 144.5 22.1716 144.5 23V29C144.5 29.8284 143.828 30.5 143 30.5H140C139.172 30.5 138.5 29.8284 138.5 29V23C138.5 22.1716 139.172 21.5 140 21.5Z" fill="url(#paint4_linear)" stroke="#4772B2"/>
<path d="M140 8.5H143C143.828 8.5 144.5 9.17157 144.5 10V18C144.5 18.8284 143.828 19.5 143 19.5H140C139.172 19.5 138.5 18.8284 138.5 18V10C138.5 9.17157 139.172 8.5 140 8.5Z" fill="url(#paint5_linear)" stroke="#4772B2"/>
<rect x="152" y="30" width="2" height="1" rx="0.5" fill="#95ADD3"/>
<rect width="2" height="1" rx="0.5" transform="matrix(-1 0 0 1 168 17)" fill="#95ADD3"/>
<rect width="2" height="1" rx="0.5" transform="matrix(-1 0 0 1 168 30)" fill="#95ADD3"/>
<path d="M154 21H152L149 23H157L154 21Z" fill="#4772B2"/>
<rect x="141" y="19" width="1" height="1" rx="0.5" fill="#95ADD3"/>
<rect x="141" y="30" width="1" height="1" rx="0.5" fill="#95ADD3"/>
<defs>
<linearGradient id="paint0_linear" x1="153" y1="8" x2="153" y2="21" gradientUnits="userSpaceOnUse">
<stop stop-color="#476FB2"/>
<stop offset="1" stop-color="#4772B2" stop-opacity="0"/>
</linearGradient>
<linearGradient id="paint1_linear" x1="153" y1="24" x2="153" y2="31" gradientUnits="userSpaceOnUse">
<stop stop-color="#476FB2"/>
<stop offset="1" stop-color="#4772B2" stop-opacity="0"/>
</linearGradient>
<linearGradient id="paint2_linear" x1="167" y1="8" x2="167" y2="18" gradientUnits="userSpaceOnUse">
<stop stop-color="#476FB2"/>
<stop offset="1" stop-color="#4772B2" stop-opacity="0"/>
</linearGradient>
<linearGradient id="paint3_linear" x1="166.816" y1="18.553" x2="166.816" y2="31" gradientUnits="userSpaceOnUse">
<stop stop-color="#476FB2"/>
<stop offset="1" stop-color="#4772B2" stop-opacity="0"/>
</linearGradient>
<linearGradient id="paint4_linear" x1="141.5" y1="21" x2="141.5" y2="31" gradientUnits="userSpaceOnUse">
<stop stop-color="#476FB2"/>
<stop offset="1" stop-color="#4772B2" stop-opacity="0"/>
</linearGradient>
<linearGradient id="paint5_linear" x1="141.5" y1="8" x2="141.5" y2="20" gradientUnits="userSpaceOnUse">
<stop stop-color="#476FB2"/>
<stop offset="1" stop-color="#4772B2" stop-opacity="0"/>
</linearGradient>
</defs>
</svg>
